<?xml version="1.0" encoding="UTF-8"?>
<svg version="1.1" xmlns="http://www.w3.org/2000/svg" width="48" height="48">
<path d="M0 0 C15 0 15 0 19 3 C21.60162971 3.49948459 21.60162971 3.49948459 24.421875 3.51171875 C25.80777832 3.56138794 25.80777832 3.56138794 27.22167969 3.61206055 C28.96819824 3.64940308 28.96819824 3.64940308 30.75 3.6875 C34.4625 3.790625 38.175 3.89375 42 4 C42 13.9 42 23.8 42 34 C28.14 34 14.28 34 0 34 C0 22.78 0 11.56 0 0 Z " fill="#FECC45" transform="translate(3,7)"/>
<path d="M0 0 C2.41734542 -0.08117951 4.83194949 -0.14056926 7.25 -0.1875 C7.93191406 -0.21263672 8.61382812 -0.23777344 9.31640625 -0.26367188 C14.56733615 -0.34014173 14.56733615 -0.34014173 16.890625 1.48632812 C19.54113936 3.3883176 21.1843446 3.42178735 24.421875 3.51171875 C25.44667969 3.54716797 26.47148437 3.58261719 27.52734375 3.61914062 C28.59082031 3.64169922 29.65429688 3.66425781 30.75 3.6875 C32.36841797 3.73874023 32.36841797 3.73874023 34.01953125 3.79101562 C36.67958377 3.87340663 39.33931035 3.94258645 42 4 C42 4.66 42 5.32 42 6 C41.2886792 5.98428955 40.5773584 5.9685791 39.84448242 5.95239258 C36.62556896 5.89008085 33.40678232 5.85102133 30.1875 5.8125 C29.06794922 5.78736328 27.94839844 5.76222656 26.79492188 5.73632812 C25.18520508 5.72182617 25.18520508 5.72182617 23.54296875 5.70703125 C22.55321045 5.6913208 21.56345215 5.67561035 20.54370117 5.65942383 C17.5465516 6.06071221 16.97299024 6.83111002 15 9 C12.37060795 9.37644848 9.94927528 9.60133087 7.3125 9.6875 C6.61060547 9.72166016 5.90871094 9.75582031 5.18554688 9.79101562 C3.45758613 9.87329947 1.72881928 9.9383324 0 10 C0 6.7 0 3.4 0 0 Z " fill="#CD8C01" transform="translate(3,7)"/>
<path d="M0 0 C1.19496094 -0.00386719 1.19496094 -0.00386719 2.4140625 -0.0078125 C3.24679688 -0.00007813 4.07953125 0.00765625 4.9375 0.015625 C5.77023438 0.00789063 6.60296875 0.00015625 7.4609375 -0.0078125 C8.25757813 -0.00523438 9.05421875 -0.00265625 9.875 0 C10.60589844 0.00225586 11.33679688 0.00451172 12.08984375 0.00683594 C13.9375 0.265625 13.9375 0.265625 15.9375 2.265625 C15.9375 4.245625 15.9375 6.225625 15.9375 8.265625 C8.6775 8.265625 1.4175 8.265625 -6.0625 8.265625 C-6.0625 0.01871142 -6.0625 0.01871142 0 0 Z " fill="#076CC3" transform="translate(19.0625,32.734375)"/>
<path d="M0 0 C0.89267578 0.00966797 1.78535156 0.01933594 2.70507812 0.02929688 C4.09823242 0.06700195 4.09823242 0.06700195 5.51953125 0.10546875 C6.45990234 0.11900391 7.40027344 0.13253906 8.36914062 0.14648438 C10.69068163 0.18183779 13.01106778 0.23118201 15.33203125 0.29296875 C15.66203125 1.28296875 15.99203125 2.27296875 16.33203125 3.29296875 C16.99203125 3.29296875 17.65203125 3.29296875 18.33203125 3.29296875 C18.33203125 5.60296875 18.33203125 7.91296875 18.33203125 10.29296875 C17.67203125 10.29296875 17.01203125 10.29296875 16.33203125 10.29296875 C15.67203125 7.98296875 15.01203125 5.67296875 14.33203125 3.29296875 C8.39203125 3.29296875 2.45203125 3.29296875 -3.66796875 3.29296875 C-4.32796875 5.60296875 -4.98796875 7.91296875 -5.66796875 10.29296875 C-6.32796875 10.29296875 -6.98796875 10.29296875 -7.66796875 10.29296875 C-8.03503535 3.80812546 -8.03503535 3.80812546 -6.44799805 1.58081055 C-4.15044603 -0.0814562 -2.8171674 -0.05383122 0 0 Z " fill="#EDC554" transform="translate(18.66796875,30.70703125)"/>
<path d="M0 0 C4.95 0 9.9 0 15 0 C15.66 1.32 16.32 2.64 17 4 C11.39 4 5.78 4 0 4 C0 2.68 0 1.36 0 0 Z " fill="#DF9B00" transform="translate(3,7)"/>
</svg>
