<?xml version="1.0" encoding="UTF-8"?>
<svg version="1.1" xmlns="http://www.w3.org/2000/svg" width="160" height="160">
<path d="M0 0 C52.8 0 105.6 0 160 0 C160 52.8 160 105.6 160 160 C107.2 160 54.4 160 0 160 C0 107.2 0 54.4 0 0 Z " fill="#8D48FE" transform="translate(0,0)"/>
<path d="M0 0 C10.95472249 7.69512521 15.95721627 17.80098167 18.76171875 30.64453125 C22.1600398 50.89383737 18.78719239 72.17799853 7.82421875 89.70703125 C3.3718095 95.87995373 -2.715981 101.67346957 -10.4375 103.03125 C-16.21586326 103.46104561 -16.21586326 103.46104561 -18.92578125 101.296875 C-20.30078125 99.64453125 -20.30078125 99.64453125 -22.23828125 96.64453125 C-22.99753906 96.99386719 -23.75679687 97.34320313 -24.5390625 97.703125 C-25.53292969 98.15816406 -26.52679688 98.61320312 -27.55078125 99.08203125 C-28.53691406 99.53449219 -29.52304688 99.98695313 -30.5390625 100.453125 C-36.13897412 102.92486602 -41.17059405 103.42200649 -47.23828125 102.64453125 C-50.65416054 101.04966078 -53.50928081 99.10253212 -55.23828125 95.64453125 C-55.33524445 93.68815611 -55.36807042 91.72830194 -55.36328125 89.76953125 C-55.36585937 88.72023438 -55.3684375 87.6709375 -55.37109375 86.58984375 C-55.25826789 84.0877644 -54.96336887 82.02696202 -54.23828125 79.64453125 C-55.22828125 80.13953125 -55.22828125 80.13953125 -56.23828125 80.64453125 C-61.06678869 81.23337362 -64.92921555 81.61871968 -68.92578125 78.64453125 C-70.67343121 74.64990278 -70.4892037 71.71002921 -69.23828125 67.64453125 C-68.0513054 65.08923601 -66.75075707 62.61172656 -65.44140625 60.1171875 C-63.02059678 55.14195245 -62.35820113 50.10626068 -61.85546875 44.640625 C-60.24894971 27.31898156 -57.19683643 12.82383617 -43.32421875 1.18359375 C-30.70654151 -8.12607822 -13.24420983 -8.02049007 0 0 Z " fill="#FDFCFD" transform="translate(105.23828125,31.35546875)"/>
<path d="M0 0 C4.75 0.75 4.75 0.75 7 3 C7.30078125 5.2421875 7.30078125 5.2421875 7.3125 7.875 C7.32925781 8.73867187 7.34601563 9.60234375 7.36328125 10.4921875 C6.93757021 13.43096692 5.94053466 14.79833799 4 17 C1.625 16.6875 1.625 16.6875 -1 16 C-3.67548031 11.98677954 -3.58740465 8.71626345 -3 4 C-1.5 1.4375 -1.5 1.4375 0 0 Z " fill="#080808" transform="translate(83,56)"/>
<path d="M0 0 C2.4375 1 2.4375 1 3.75 3.1875 C4.71223541 7.12391759 4.87412403 10.38449109 3.8125 14.3125 C2.4375 16 2.4375 16 -0.6875 16.75 C-2.110625 16.87375 -2.110625 16.87375 -3.5625 17 C-5.78514871 13.66602694 -5.85925463 12.40485109 -5.875 8.5 C-5.89175781 7.5409375 -5.90851563 6.581875 -5.92578125 5.59375 C-5.5625 3 -5.5625 3 -4.203125 1.15625 C-2.5625 0 -2.5625 0 0 0 Z " fill="#0A0A0A" transform="translate(104.5625,56)"/>
<path d="M0 0 C0.7425 0.763125 1.485 1.52625 2.25 2.3125 C4.4263323 4.4393702 6.52167796 6.2559956 9 8 C5.26512223 7.5020163 3.18762365 7.12508244 0 5 C-0.33 5.33 -0.66 5.66 -1 6 C-4.5718896 8.38125973 -5.99150219 9.14038481 -10.17578125 8.9140625 C-11.00400391 8.87023437 -11.83222656 8.82640625 -12.68554688 8.78125 C-13.55244141 8.7296875 -14.41933594 8.678125 -15.3125 8.625 C-16.16779297 8.58117187 -17.02308594 8.53734375 -17.90429688 8.4921875 C-22.01890529 8.26271282 -25.98064292 7.97790543 -30 7 C-29.67 6.01 -29.34 5.02 -29 4 C-28.28199219 4.32226562 -27.56398437 4.64453125 -26.82421875 4.9765625 C-19.33549126 7.6903199 -12.19196057 6.18154116 -5.09375 3.0703125 C-2.79102198 1.94386954 -2.79102198 1.94386954 0 0 Z " fill="#844CE1" transform="translate(82,127)"/>
<path d="M0 0 C0.33 0 0.66 0 1 0 C0.67 2.97 0.34 5.94 0 9 C-1.32 8.67 -2.64 8.34 -4 8 C-4 9.98 -4 11.96 -4 14 C-7.34665322 15.11555107 -10.50335079 15.53378011 -14 16 C-15.299375 16.185625 -16.59875 16.37125 -17.9375 16.5625 C-18.948125 16.706875 -19.95875 16.85125 -21 17 C-20.15888672 16.58427734 -20.15888672 16.58427734 -19.30078125 16.16015625 C-11.71737774 12.33626687 -6.22300308 8.80974087 -1.27734375 1.7578125 C-0.85582031 1.17773438 -0.43429688 0.59765625 0 0 Z " fill="#8348E2" transform="translate(114,118)"/>
<path d="M0 0 C2 1 2 1 2.7890625 2.9296875 C4.48256346 5.82502785 6.22537946 6.12016127 9.375 7.125 C12.73637121 8.22129627 15.87943825 9.32879868 19 11 C12.54705517 11.52510401 7.39749665 11.80901272 2.23828125 7.51171875 C0.31981386 5.16961502 0.06885016 2.960557 0 0 Z " fill="#F6E1FD" transform="translate(50,123)"/>
<path d="M0 0 C1.4606285 2.64738916 2 3.89448334 2 7 C1.34 7 0.68 7 0 7 C0.33 7.99 0.66 8.98 1 10 C0.67 10.66 0.34 11.32 0 12 C0.66 12.33 1.32 12.66 2 13 C1.236875 13.226875 0.47375 13.45375 -0.3125 13.6875 C-3.54736301 15.26731682 -4.41641358 16.83282717 -6 20 C-6.33 19.34 -6.66 18.68 -7 18 C-6.11303819 15.46540383 -5.16989274 13.03076885 -4.125 10.5625 C-1.9367522 5.32949628 -1.9367522 5.32949628 0 0 Z " fill="#854DE2" transform="translate(122,98)"/>
<path d="M0 0 C1.09731445 0.01353516 1.09731445 0.01353516 2.21679688 0.02734375 C3.99884298 0.05063847 5.78071759 0.0864981 7.5625 0.125 C7.5625 0.455 7.5625 0.785 7.5625 1.125 C6.68207031 1.15078125 5.80164063 1.1765625 4.89453125 1.203125 C3.15236328 1.28820312 3.15236328 1.28820312 1.375 1.375 C-0.34783203 1.44460937 -0.34783203 1.44460937 -2.10546875 1.515625 C-5.94782394 2.21833005 -7.47735296 3.68487879 -10.4375 6.125 C-14.25 5.375 -14.25 5.375 -17.4375 4.125 C-12.83286233 -0.47963767 -6.11433718 -0.14544626 0 0 Z " fill="#F6DCFF" transform="translate(84.4375,25.875)"/>
<path d="M0 0 C4.17858365 3.71429658 7.17846829 7.64185802 9 13 C8.67 13.66 8.34 14.32 8 15 C7.67 13.68 7.34 12.36 7 11 C5.02 11 3.04 11 1 11 C-0.2077558 7.37673261 0.45688872 6.35853631 2 3 C1.34 3 0.68 3 0 3 C0 2.01 0 1.02 0 0 Z " fill="#F1E0FC" transform="translate(112,38)"/>
<path d="M0 0 C0.99 0.33 1.98 0.66 3 1 C2.48050781 1.44730469 1.96101563 1.89460938 1.42578125 2.35546875 C-2.52679654 5.78201031 -6.35827082 9.24446679 -10 13 C-10 11.68 -10 10.36 -10 9 C-9.34 8.67 -8.68 8.34 -8 8 C-6.94647157 5.69034152 -5.94280904 3.3570226 -5 1 C-4.01 1.33 -3.02 1.66 -2 2 C-1.34 1.34 -0.68 0.68 0 0 Z " fill="#864FE1" transform="translate(61,31)"/>
<path d="M0 0 C6.4 -0.49230769 6.4 -0.49230769 9.4375 2 C10.2109375 2.99 10.2109375 2.99 11 4 C11.66 3.67 12.32 3.34 13 3 C13.66 3.66 14.32 4.32 15 5 C14.01 6.485 14.01 6.485 13 8 C11.39528272 7.04258894 9.79124671 6.08403595 8.1875 5.125 C7.29417969 4.59132813 6.40085937 4.05765625 5.48046875 3.5078125 C3.62705276 2.38116908 1.80470083 1.20313389 0 0 Z " fill="#7E47D5" transform="translate(96,27)"/>
<path d="M0 0 C0.33 0 0.66 0 1 0 C1 2.97 1 5.94 1 9 C0.01 9 -0.98 9 -2 9 C-2.66 10.32 -3.32 11.64 -4 13 C-3.56407724 7.85611138 -3.18386087 4.24514783 0 0 Z " fill="#F3E0FD" transform="translate(39,94)"/>
<path d="M0 0 C0.7425 0.763125 1.485 1.52625 2.25 2.3125 C4.4263323 4.4393702 6.52167796 6.2559956 9 8 C5.26512223 7.5020163 3.18762365 7.12508244 0 5 C-0.33 4.34 -0.66 3.68 -1 3 C-1.66 2.67 -2.32 2.34 -3 2 C-2.01 1.34 -1.02 0.68 0 0 Z " fill="#7F4DD0" transform="translate(82,127)"/>
<path d="M0 0 C0.99 0.33 1.98 0.66 3 1 C0.69 3.97 -1.62 6.94 -4 10 C-5 6 -5 6 -4 3 C-2.125 1.25 -2.125 1.25 0 0 Z " fill="#FAEEFD" transform="translate(52,48)"/>
<path d="M0 0 C0.66 0.33 1.32 0.66 2 1 C-0.97 3.64 -3.94 6.28 -7 9 C-7.66 8.67 -8.32 8.34 -9 8 C-7.87811441 6.85111717 -6.75238316 5.70598863 -5.625 4.5625 C-4.99851562 3.92441406 -4.37203125 3.28632812 -3.7265625 2.62890625 C-2 1 -2 1 0 0 Z " fill="#FBEAFE" transform="translate(64,31)"/>
<path d="M0 0 C3.96 0 7.92 0 12 0 C12 0.33 12 0.66 12 1 C7.71 1.66 3.42 2.32 -1 3 C-0.67 2.01 -0.34 1.02 0 0 Z " fill="#8347DD" transform="translate(70,25)"/>
<path d="M0 0 C1 3 1 3 0.22265625 4.82421875 C-0.8515625 6.54947917 -1.92578125 8.27473958 -3 10 C-3.66 8.68 -4.32 7.36 -5 6 C-4.01 6 -3.02 6 -2 6 C-2 4.68 -2 3.36 -2 2 C-1.34 2 -0.68 2 0 2 C0 1.34 0 0.68 0 0 Z " fill="#834CDE" transform="translate(40,89)"/>
<path d="M0 0 C2.0625 1.625 2.0625 1.625 4 4 C3.75 7.25 3.75 7.25 3 10 C2.01 9.34 1.02 8.68 0 8 C0.66 6.35 1.32 4.7 2 3 C1.34 3 0.68 3 0 3 C0 2.01 0 1.02 0 0 Z " fill="#F8EAFE" transform="translate(112,38)"/>
<path d="M0 0 C1.60031344 3.20062687 0.03173691 5.72271806 -1 9 C-1.33 9 -1.66 9 -2 9 C-2.103125 8.21625 -2.20625 7.4325 -2.3125 6.625 C-2.77595022 3.66954819 -2.77595022 3.66954819 -6 2 C-4.02 1.34 -2.04 0.68 0 0 Z " fill="#7948CB" transform="translate(51,110)"/>
<path d="M0 0 C1.1577506 3.47325181 1.06866652 6.36067448 1 10 C0.01 9.34 -0.98 8.68 -2 8 C-2.3125 5 -2.3125 5 -2 2 C-1.34 1.34 -0.68 0.68 0 0 Z " fill="#7F46E7" transform="translate(35,99)"/>
<path d="M0 0 C0.78375 0.04125 1.5675 0.0825 2.375 0.125 C2.375 0.785 2.375 1.445 2.375 2.125 C3.035 2.455 3.695 2.785 4.375 3.125 C1.58676345 4.1576802 0.5072726 4.17009293 -2.375 3.1875 C-3.1175 2.836875 -3.86 2.48625 -4.625 2.125 C-2.625 0.125 -2.625 0.125 0 0 Z " fill="#F4E7F8" transform="translate(71.625,27.875)"/>
<path d="M0 0 C0 0.99 0 1.98 0 3 C-1.98 3 -3.96 3 -6 3 C-6 2.01 -6 1.02 -6 0 C-3.50907189 -1.24546405 -2.58919267 -0.7767578 0 0 Z " fill="#8448EE" transform="translate(81,131)"/>
<path d="M0 0 C0.99 0.66 1.98 1.32 3 2 C0.03 4.475 0.03 4.475 -3 7 C-3 3.48283697 -2.17554415 2.62878252 0 0 Z " fill="#EFD8FD" transform="translate(108,122)"/>
<path d="M0 0 C2 4 2 4 2 7 C1.34 7 0.68 7 0 7 C0 7.66 0 8.32 0 9 C-0.66 9 -1.32 9 -2 9 C-1.34 6.03 -0.68 3.06 0 0 Z " fill="#7D44E3" transform="translate(122,98)"/>
<path d="M0 0 C1 2 1 2 0.25 4.5625 C-1 7 -1 7 -4 8 C-2.87548273 5.0280615 -1.77706209 2.66559313 0 0 Z " fill="#F4DCFF" transform="translate(54,40)"/>
<path d="M0 0 C0.66 0.66 1.32 1.32 2 2 C1.67 2.66 1.34 3.32 1 4 C1.66 4 2.32 4 3 4 C3.33 5.65 3.66 7.3 4 9 C1.33264727 6.51047079 -0.55746343 4.36591866 -2 1 C-1.34 0.67 -0.68 0.34 0 0 Z " fill="#7D44DB" transform="translate(115,37)"/>
</svg>
