<?xml version="1.0" encoding="UTF-8"?>
<svg version="1.1" xmlns="http://www.w3.org/2000/svg" width="542" height="362">
<path d="M0 0 C1.15338867 -0.03673828 1.15338867 -0.03673828 2.33007812 -0.07421875 C9.14765866 -0.10873815 14.20512676 1.82546677 19.39453125 6.26171875 C19.92433594 6.85597656 20.45414063 7.45023437 21 8.0625 C23.20350474 10.50676773 23.96958742 11.30236247 27.1875 12.375 C27.5175 14.685 27.8475 16.995 28.1875 19.375 C29.37085938 19.47296875 30.55421875 19.5709375 31.7734375 19.671875 C44.55653543 20.83520455 54.17135194 22.8962142 64.1875 31.375 C64.93 31.9525 65.6725 32.53 66.4375 33.125 C72.17313836 40.49939218 72.74746835 48.32217835 72.1875 57.375 C73.22648438 57.38917969 74.26546875 57.40335938 75.3359375 57.41796875 C86.68859164 57.73828016 95.16869216 59.88293236 103.78515625 67.76953125 C110.11194875 75.01273938 109.6256113 85.35677231 109.1875 94.375 C108.73855206 100.51468839 108.09104824 106.6378193 107.47714233 112.76272583 C106.0022692 127.65582103 104.78536606 142.46383055 104.875 157.4375 C104.88208984 158.68764893 104.88917969 159.93779785 104.89648438 161.22583008 C104.99286058 167.73077756 105.37522913 174.16171975 105.96264648 180.6394043 C106.28103746 184.51298829 106.37945466 188.36464246 106.375 192.25 C106.37419434 193.00812988 106.37338867 193.76625977 106.37255859 194.54736328 C106.1812631 212.42786587 106.1812631 212.42786587 102.1875 219.375 C101.8575 219.375 101.5275 219.375 101.1875 219.375 C101.06632813 219.92027344 100.94515625 220.46554687 100.8203125 221.02734375 C100.56894531 222.15849609 100.56894531 222.15849609 100.3125 223.3125 C100.13074219 224.13105469 99.94898438 224.94960938 99.76171875 225.79296875 C99.39043404 227.46248707 99.01810923 229.13177458 98.64453125 230.80078125 C98.47308594 231.56777344 98.30164063 232.33476562 98.125 233.125 C97.96902344 233.82109375 97.81304688 234.5171875 97.65234375 235.234375 C97.32310227 236.75054585 97.04841779 238.27903438 96.8125 239.8125 C96.0801912 242.81496606 94.86129096 244.99335608 93.25 247.625 C92.72535156 248.49640625 92.20070313 249.3678125 91.66015625 250.265625 C90.1875 252.375 90.1875 252.375 88.1875 253.375 C88.06375 253.973125 87.94 254.57125 87.8125 255.1875 C86.98027307 258.10029427 85.40228508 259.36155902 83.1875 261.375 C80.9638932 263.3004644 80.9638932 263.3004644 80.1875 266.375 C78.52904318 267.06183565 76.86113977 267.72603764 75.1875 268.375 C73.20827218 270.03821053 73.20827218 270.03821053 71.3125 272 C52.4261608 289.25496107 22.73149359 293.56324949 -1.89160156 293.56030273 C-3.91232914 293.56247297 -5.93249468 293.58063516 -7.953125 293.59960938 C-15.71291345 293.6109985 -23.11588722 293.09493413 -30.77099609 291.8059082 C-34.44971178 291.28472236 -37.97741073 291.33975012 -41.6796875 291.4375 C-44.62775606 291.35110971 -47.111656 290.51219747 -49.8125 289.375 C-49.8125 288.715 -49.8125 288.055 -49.8125 287.375 C-55.76348874 285.15817598 -61.67402818 283.01192582 -67.8125 281.375 C-67.8125 280.715 -67.8125 280.055 -67.8125 279.375 C-69.56681198 278.06354087 -69.56681198 278.06354087 -71.8125 276.75 C-76.21242387 273.94183374 -79.64436195 270.73214286 -83.18359375 266.9140625 C-84.68129056 265.14607431 -84.68129056 265.14607431 -86.8125 265.375 C-86.874375 264.83875 -86.93625 264.3025 -87 263.75 C-88.1931584 260.2623062 -90.31937993 258.04620008 -92.8125 255.375 C-93.8025 255.045 -94.7925 254.715 -95.8125 254.375 C-97.46070195 251.77257586 -97.8125 250.51251221 -97.8125 247.375 C-99.73747407 245.40077814 -99.73747407 245.40077814 -101.625 243.8125 C-104.66978954 240.41973451 -107.10298136 236.61366952 -108.8125 232.375 C-108.4825 231.385 -108.1525 230.395 -107.8125 229.375 C-108.69569294 226.22479639 -108.69569294 226.22479639 -109.8125 223.375 C-110.4725 223.375 -111.1325 223.375 -111.8125 223.375 C-112.48929658 221.649773 -113.15352 219.91961061 -113.8125 218.1875 C-114.18375 217.22457031 -114.555 216.26164063 -114.9375 215.26953125 C-115.78886772 212.45317642 -115.98322647 210.29335561 -115.8125 207.375 C-116.4725 207.375 -117.1325 207.375 -117.8125 207.375 C-117.895 206.385 -117.9775 205.395 -118.0625 204.375 C-119.03651659 197.59803947 -122.6076949 192.5991518 -126.8125 187.375 C-129.95249795 182.42488559 -132.09487159 178.259553 -132.8125 172.375 C-134.12566121 171.06183879 -135.48001888 169.7883925 -136.875 168.5625 C-139.04568223 166.11172974 -139.45620166 164.58168509 -139.8125 161.375 C-140.4725 161.375 -141.1325 161.375 -141.8125 161.375 C-143.44937175 154.29992625 -144.56268238 145.54152415 -141.68359375 138.6875 C-138.66765726 134.40376775 -135.96792677 132.60781945 -130.8125 131.375 C-128.64217524 129.93509377 -128.64217524 129.93509377 -126.8125 128.375 C-123.06622773 125.87748515 -120.14690187 125.86597772 -115.8125 126.375 C-111.24022435 127.56281538 -108.08050125 128.94655424 -104.8125 132.375 C-101.37580218 135.20056955 -98.10001636 137.87118925 -93.9375 139.5 C-91.21407462 140.62141045 -91.02780587 141.78234748 -89.8125 144.375 C-89.1525 144.684375 -88.4925 144.99375 -87.8125 145.3125 C-85.8125 146.375 -85.8125 146.375 -84.9375 148.75 C-83.40420209 152.32769513 -81.02449139 153.25508569 -77.8125 155.375 C-74.98971022 158.96070594 -73.34794228 161.82374062 -72.8125 166.375 C-72.1525 166.375 -71.4925 166.375 -70.8125 166.375 C-69.1875 168.875 -69.1875 168.875 -67.8125 171.375 C-67.36145222 147.63600861 -68.48120654 124.47490334 -71.35595703 100.89331055 C-72.74362653 89.19930086 -73.05640158 77.70539147 -72.9375 65.9375 C-72.92742474 64.1790417 -72.91830712 62.42057765 -72.91015625 60.66210938 C-72.89404385 57.47721829 -72.87282514 54.29246935 -72.84423828 51.10766602 C-72.82232233 48.53018214 -72.8125 45.95257705 -72.8125 43.375 C-73.1425 43.375 -73.4725 43.375 -73.8125 43.375 C-74.32021168 35.75932485 -72.9491948 29.36175163 -69.8125 22.375 C-68.30078125 20.6484375 -68.30078125 20.6484375 -66.8125 19.375 C-65.551696 18.114196 -64.31779497 16.82532774 -63.125 15.5 C-56.57170013 9.47804877 -50.58459766 8.24423581 -41.8125 8.375 C-36.99538476 8.93105345 -32.41247508 9.84167497 -27.8125 11.375 C-23.93702798 9.43726399 -20.77333707 7.29667414 -18.8125 3.375 C-17.15330104 3.00628912 -15.48475729 2.67904678 -13.8125 2.375 C-13.11253906 2.04242188 -12.41257812 1.70984375 -11.69140625 1.3671875 C-7.75586346 0.01084032 -4.13447194 0.00682819 0 0 Z M30.1875 21.375 C34.1875 22.375 34.1875 22.375 34.1875 22.375 Z M-69.8125 25.375 C-68.8125 27.375 -68.8125 27.375 -68.8125 27.375 Z M-70.8125 28.375 C-69.8125 30.375 -69.8125 30.375 -69.8125 30.375 Z M67.1875 37.375 C68.1875 39.375 68.1875 39.375 68.1875 39.375 Z M69.1875 42.375 C70.1875 46.375 70.1875 46.375 70.1875 46.375 Z M70.1875 46.375 C70.1875 50.335 70.1875 54.295 70.1875 58.375 C70.5175 58.375 70.8475 58.375 71.1875 58.375 C71.1875 54.415 71.1875 50.455 71.1875 46.375 C70.8575 46.375 70.5275 46.375 70.1875 46.375 Z M-71.8125 72.375 C-71.8125 76.665 -71.8125 80.955 -71.8125 85.375 C-71.4825 85.375 -71.1525 85.375 -70.8125 85.375 C-70.8125 81.085 -70.8125 76.795 -70.8125 72.375 C-71.1425 72.375 -71.4725 72.375 -71.8125 72.375 Z M105.1875 74.375 C106.1875 76.375 106.1875 76.375 106.1875 76.375 Z M106.1875 77.375 C106.1875 79.025 106.1875 80.675 106.1875 82.375 C106.5175 82.375 106.8475 82.375 107.1875 82.375 C107.1875 80.725 107.1875 79.075 107.1875 77.375 C106.8575 77.375 106.5275 77.375 106.1875 77.375 Z M107.1875 82.375 C107.1875 86.335 107.1875 90.295 107.1875 94.375 C107.5175 94.375 107.8475 94.375 108.1875 94.375 C108.1875 90.415 108.1875 86.455 108.1875 82.375 C107.8575 82.375 107.5275 82.375 107.1875 82.375 Z M-70.8125 85.375 C-70.8125 88.675 -70.8125 91.975 -70.8125 95.375 C-70.4825 95.375 -70.1525 95.375 -69.8125 95.375 C-69.8125 92.075 -69.8125 88.775 -69.8125 85.375 C-70.1425 85.375 -70.4725 85.375 -70.8125 85.375 Z M106.1875 94.375 C106.1875 97.675 106.1875 100.975 106.1875 104.375 C106.5175 104.375 106.8475 104.375 107.1875 104.375 C107.1875 101.075 107.1875 97.775 107.1875 94.375 C106.8575 94.375 106.5275 94.375 106.1875 94.375 Z M-69.8125 95.375 C-69.8125 98.345 -69.8125 101.315 -69.8125 104.375 C-69.4825 104.375 -69.1525 104.375 -68.8125 104.375 C-68.8125 101.405 -68.8125 98.435 -68.8125 95.375 C-69.1425 95.375 -69.4725 95.375 -69.8125 95.375 Z M105.1875 104.375 C105.1875 108.005 105.1875 111.635 105.1875 115.375 C105.5175 115.375 105.8475 115.375 106.1875 115.375 C106.1875 111.745 106.1875 108.115 106.1875 104.375 C105.8575 104.375 105.5275 104.375 105.1875 104.375 Z M-68.8125 105.375 C-68.8125 108.015 -68.8125 110.655 -68.8125 113.375 C-68.4825 113.375 -68.1525 113.375 -67.8125 113.375 C-67.8125 110.735 -67.8125 108.095 -67.8125 105.375 C-68.1425 105.375 -68.4725 105.375 -68.8125 105.375 Z M-67.8125 114.375 C-67.8125 117.345 -67.8125 120.315 -67.8125 123.375 C-67.4825 123.375 -67.1525 123.375 -66.8125 123.375 C-66.8125 120.405 -66.8125 117.435 -66.8125 114.375 C-67.1425 114.375 -67.4725 114.375 -67.8125 114.375 Z M104.1875 115.375 C104.1875 118.675 104.1875 121.975 104.1875 125.375 C104.5175 125.375 104.8475 125.375 105.1875 125.375 C105.1875 122.075 105.1875 118.775 105.1875 115.375 C104.8575 115.375 104.5275 115.375 104.1875 115.375 Z M-66.8125 124.375 C-66.8125 128.335 -66.8125 132.295 -66.8125 136.375 C-66.4825 136.375 -66.1525 136.375 -65.8125 136.375 C-65.8125 132.415 -65.8125 128.455 -65.8125 124.375 C-66.1425 124.375 -66.4725 124.375 -66.8125 124.375 Z M103.1875 126.375 C103.1875 130.335 103.1875 134.295 103.1875 138.375 C103.5175 138.375 103.8475 138.375 104.1875 138.375 C104.1875 134.415 104.1875 130.455 104.1875 126.375 C103.8575 126.375 103.5275 126.375 103.1875 126.375 Z M-122.8125 127.375 C-122.8125 127.705 -122.8125 128.035 -122.8125 128.375 C-120.8325 128.375 -118.8525 128.375 -116.8125 128.375 C-116.8125 128.045 -116.8125 127.715 -116.8125 127.375 C-118.7925 127.375 -120.7725 127.375 -122.8125 127.375 Z M-65.8125 138.375 C-66.00458189 143.89222958 -66.18333263 149.40966668 -66.34960938 154.92773438 C-66.4080953 156.80578256 -66.47025641 158.68371997 -66.53613281 160.56152344 C-66.63006025 163.25695632 -66.71086718 165.95250816 -66.7890625 168.6484375 C-66.82125885 169.49119232 -66.8534552 170.33394714 -66.8866272 171.20223999 C-66.93978029 173.25928841 -66.885558 175.31856231 -66.8125 177.375 C-66.1525 178.035 -65.4925 178.695 -64.8125 179.375 C-64.8125 165.845 -64.8125 152.315 -64.8125 138.375 C-65.1425 138.375 -65.4725 138.375 -65.8125 138.375 Z M102.1875 139.375 C102.1875 144.325 102.1875 149.275 102.1875 154.375 C102.5175 154.375 102.8475 154.375 103.1875 154.375 C103.1875 149.425 103.1875 144.475 103.1875 139.375 C102.8575 139.375 102.5275 139.375 102.1875 139.375 Z M102.1875 160.375 C102.1875 164.335 102.1875 168.295 102.1875 172.375 C102.5175 172.375 102.8475 172.375 103.1875 172.375 C103.1875 168.415 103.1875 164.455 103.1875 160.375 C102.8575 160.375 102.5275 160.375 102.1875 160.375 Z M103.1875 172.375 C103.1875 176.665 103.1875 180.955 103.1875 185.375 C103.5175 185.375 103.8475 185.375 104.1875 185.375 C104.1875 181.085 104.1875 176.795 104.1875 172.375 C103.8575 172.375 103.5275 172.375 103.1875 172.375 Z M104.1875 186.375 C104.1875 190.665 104.1875 194.955 104.1875 199.375 C104.5175 199.375 104.8475 199.375 105.1875 199.375 C105.1875 195.085 105.1875 190.795 105.1875 186.375 C104.8575 186.375 104.5275 186.375 104.1875 186.375 Z M103.1875 200.375 C103.1875 203.345 103.1875 206.315 103.1875 209.375 C103.5175 209.375 103.8475 209.375 104.1875 209.375 C104.1875 206.405 104.1875 203.435 104.1875 200.375 C103.8575 200.375 103.5275 200.375 103.1875 200.375 Z M-114.8125 209.375 C-113.8125 211.375 -113.8125 211.375 -113.8125 211.375 Z M102.1875 209.375 C102.1875 211.025 102.1875 212.675 102.1875 214.375 C102.5175 214.375 102.8475 214.375 103.1875 214.375 C103.1875 212.725 103.1875 211.075 103.1875 209.375 C102.8575 209.375 102.5275 209.375 102.1875 209.375 Z M-111.8125 218.375 C-110.8125 221.375 -110.8125 221.375 -110.8125 221.375 Z M95.1875 237.375 C96.1875 239.375 96.1875 239.375 96.1875 239.375 Z M94.1875 239.375 C95.1875 241.375 95.1875 241.375 95.1875 241.375 Z M-42.8125 289.375 C-38.8125 290.375 -38.8125 290.375 -38.8125 290.375 Z " fill="#030301" transform="translate(431.8125,66.625)"/>
<path d="M0 0 C3.64047492 1.99195797 6.34499304 3.91918071 9.3125 6.8125 C9.3125 7.4725 9.3125 8.1325 9.3125 8.8125 C10.3025 8.4825 11.2925 8.1525 12.3125 7.8125 C12.3125 8.4725 12.3125 9.1325 12.3125 9.8125 C15.1369744 9.35447712 17.94626645 8.89506473 20.73828125 8.265625 C29.50309298 6.38835708 37.98682947 6.14693174 46.3125 9.8125 C47.055 10.10125 47.7975 10.39 48.5625 10.6875 C50.8531821 12.16008135 50.67240212 13.25210848 51.3125 15.8125 C51.95703125 16.08835937 52.6015625 16.36421875 53.265625 16.6484375 C55.3125 17.8125 55.3125 17.8125 56.140625 19.9765625 C56.34945312 21.19472656 56.34945312 21.19472656 56.5625 22.4375 C56.71203125 23.25476563 56.8615625 24.07203125 57.015625 24.9140625 C57.11359375 25.54054688 57.2115625 26.16703125 57.3125 26.8125 C58.3025 26.3175 58.3025 26.3175 59.3125 25.8125 C59.72527905 74.58393276 59.72527905 74.58393276 57.3125 94.8125 C57.6425 94.8125 57.9725 94.8125 58.3125 94.8125 C58.55190995 102.41930766 57.85876348 109.8064761 57.02993774 117.36230469 C55.13840828 134.87109784 54.9803362 152.21974223 55.3125 169.8125 C55.9725 169.8125 56.6325 169.8125 57.3125 169.8125 C57.9725 167.5025 58.6325 165.1925 59.3125 162.8125 C59.9725 162.8125 60.6325 162.8125 61.3125 162.8125 C61.374375 162.11125 61.43625 161.41 61.5 160.6875 C62.79112472 156.11890484 65.55169685 152.85946404 69.625 150.4375 C70.181875 150.23125 70.73875 150.025 71.3125 149.8125 C71.3125 148.8225 71.3125 147.8325 71.3125 146.8125 C72.95040712 145.76605934 74.62258021 144.7726817 76.3125 143.8125 C78.68055233 141.72304206 80.18092269 140.06938904 81.625 137.25 C83.94283613 133.90201447 86.57954777 133.33098904 90.3125 131.8125 C91.158125 130.925625 92.00375 130.03875 92.875 129.125 C96.85403895 125.60467064 101.71646131 126.20446804 106.7578125 126.375 C110.97621032 126.89418742 114.40503296 128.02037832 118.2265625 129.83984375 C120.26120887 130.88551603 120.26120887 130.88551603 122.4140625 131.25 C125.79816293 132.25269642 127.22282091 135.08430785 129.3125 137.8125 C128.9825 138.4725 128.6525 139.1325 128.3125 139.8125 C128.6425 140.823125 128.9725 141.83375 129.3125 142.875 C131.19231178 148.95898544 129.99309233 155.13595154 127.3125 160.8125 C126.879375 162.05 126.879375 162.05 126.4375 163.3125 C125.11713401 166.24664665 123.38654275 168.36135857 121.3125 170.8125 C118.79944034 173.79094108 117.85074562 175.93713151 117.3125 179.8125 C116.6525 179.8125 115.9925 179.8125 115.3125 179.8125 C115.20035156 180.52792969 115.08820313 181.24335938 114.97265625 181.98046875 C114.26793995 185.00365998 113.17962202 187.37572688 111.75 190.125 C111.29496094 191.00800781 110.83992187 191.89101563 110.37109375 192.80078125 C110.02175781 193.46464844 109.67242187 194.12851562 109.3125 194.8125 C108.3225 194.8125 107.3325 194.8125 106.3125 194.8125 C106.32152344 195.39773438 106.33054688 195.98296875 106.33984375 196.5859375 C106.10486724 203.39003979 104.33849915 209.09892774 101.875 215.375 C101.56232178 216.17276855 101.24964355 216.97053711 100.92749023 217.79248047 C98.0160076 224.9607462 98.0160076 224.9607462 94.3125 226.8125 C93.84598793 228.93826782 93.84598793 228.93826782 93.6875 231.375 C93.61273438 232.20128906 93.53796875 233.02757812 93.4609375 233.87890625 C93.38746094 234.83603516 93.38746094 234.83603516 93.3125 235.8125 C92.6525 235.8125 91.9925 235.8125 91.3125 235.8125 C91.1578125 236.8953125 91.1578125 236.8953125 91 238 C90.24456053 241.09043421 89.15718685 243.22993841 87.3125 245.8125 C86.6525 245.8125 85.9925 245.8125 85.3125 245.8125 C85.003125 246.43125 84.69375 247.05 84.375 247.6875 C83.11053413 250.21643174 81.8922053 252.44294206 80.3125 254.8125 C80.02375 255.493125 79.735 256.17375 79.4375 256.875 C78.05652292 259.25334941 76.73750099 259.63911242 74.3125 260.8125 C73.9825 261.8025 73.6525 262.7925 73.3125 263.8125 C72 265.171875 72 265.171875 70.3125 266.5625 C69.68988281 267.078125 69.06726563 267.59375 68.42578125 268.125 C65.38765641 270.55100726 62.31957911 272.93617793 59.23046875 275.296875 C57.08356632 276.99340889 55.54423892 278.34902215 54.3125 280.8125 C52.31591226 281.16569754 50.31510404 281.49518598 48.3125 281.8125 C46.20649117 282.56427181 44.12172047 283.37819435 42.0625 284.25 C41.02609375 284.68183594 39.9896875 285.11367188 38.921875 285.55859375 C36.22878826 286.67549654 36.22878826 286.67549654 34.3125 288.8125 C32.38189218 288.82917912 30.45057757 288.83759591 28.52050781 288.7890625 C25.7394088 288.81858323 23.10008599 289.33417543 20.37915039 289.88037109 C-10.76908882 296.02188646 -46.15347868 292.07951066 -74.6875 277.8125 C-75.450625 277.19375 -76.21375 276.575 -77 275.9375 C-80.11354719 273.47562548 -83.22237219 271.44041192 -86.875 269.875 C-89.21089742 268.50568082 -89.53617334 267.25060351 -90.6875 264.8125 C-93.46090938 261.16327713 -95.54971355 258.73361514 -99.6875 256.8125 C-100.0175 255.8225 -100.3475 254.8325 -100.6875 253.8125 C-101.33785814 252.47113633 -102.0037955 251.13717746 -102.6875 249.8125 C-103.1825 248.8225 -103.1825 248.8225 -103.6875 247.8125 C-104.55375 246.8534375 -104.55375 246.8534375 -105.4375 245.875 C-110.38018805 239.14745237 -112.7928139 233.1410739 -112.6875 224.8125 C-113.06807064 221.81022052 -113.62206543 218.847352 -114.1875 215.875 C-114.33058594 215.09576172 -114.47367188 214.31652344 -114.62109375 213.51367188 C-114.97104724 211.6122579 -115.32849665 209.71222607 -115.6875 207.8125 C-116.3475 207.8125 -117.0075 207.8125 -117.6875 207.8125 C-119.48992631 195.19551586 -118.90034481 182.4607387 -117.6875 169.8125 C-117.0275 169.8125 -116.3675 169.8125 -115.6875 169.8125 C-115.46512123 167.39638467 -115.25917661 164.9807283 -115.0625 162.5625 C-114.99804688 161.88058594 -114.93359375 161.19867188 -114.8671875 160.49609375 C-114.50000364 156.59176128 -114.50000364 156.59176128 -115.64315796 152.93225098 C-116.93629287 150.30751321 -117.12403455 148.13786167 -117.37353516 145.22460938 C-117.47348785 144.10244019 -117.57344055 142.980271 -117.67642212 141.82409668 C-117.77546844 140.61370728 -117.87451477 139.40331787 -117.9765625 138.15625 C-118.08471283 136.90299927 -118.19286316 135.64974854 -118.30429077 134.35852051 C-118.53166591 131.7024752 -118.75585581 129.04639446 -118.97460938 126.38964844 C-119.25245565 123.01815094 -119.54187181 119.64777802 -119.8353672 116.27761078 C-120.11705942 113.02928465 -120.39031929 109.78025418 -120.6640625 106.53125 C-120.76715729 105.33705444 -120.87025208 104.14285889 -120.97647095 102.91247559 C-123.24051543 75.17324383 -123.24051543 75.17324383 -116.6875 66.8125 C-114.49934262 64.58942521 -112.19230178 62.66942026 -109.6875 60.8125 C-109.14738281 60.40515625 -108.60726562 59.9978125 -108.05078125 59.578125 C-101.18041336 55.31695301 -92.51465251 55.99038983 -84.6875 55.8125 C-84.73970703 54.65234375 -84.73970703 54.65234375 -84.79296875 53.46875 C-84.96615938 46.80503443 -84.63908246 41.82918732 -81.6875 35.8125 C-81.0275 35.4825 -80.3675 35.1525 -79.6875 34.8125 C-79.3884375 34.19246094 -79.089375 33.57242188 -78.78125 32.93359375 C-76.80406143 29.0992602 -73.21673782 27.14143866 -69.6875 24.8125 C-68.97722656 24.33039063 -68.26695313 23.84828125 -67.53515625 23.3515625 C-59.73794053 18.73987594 -51.50516484 18.92502241 -42.6875 18.8125 C-42.38714844 17.85859375 -42.08679688 16.9046875 -41.77734375 15.921875 C-40.25083775 11.56668225 -38.47249364 10.3358291 -34.6875 7.8125 C-34.0275 6.8225 -33.3675 5.8325 -32.6875 4.8125 C-30.84765625 3.4609375 -30.84765625 3.4609375 -28.75 2.1875 C-28.06035156 1.76210937 -27.37070313 1.33671875 -26.66015625 0.8984375 C-19.81031786 -2.87236462 -7.41242142 -2.56249725 0 0 Z M-40.6875 14.8125 C-39.6875 16.8125 -39.6875 16.8125 -39.6875 16.8125 Z M-41.6875 16.8125 C-40.6875 19.8125 -40.6875 19.8125 -40.6875 19.8125 Z M-46.6875 19.8125 C-42.6875 20.8125 -42.6875 20.8125 -42.6875 20.8125 Z M-82.6875 40.8125 C-81.6875 43.8125 -81.6875 43.8125 -81.6875 43.8125 Z M-83.6875 44.8125 C-83.6875 48.7725 -83.6875 52.7325 -83.6875 56.8125 C-83.3575 56.8125 -83.0275 56.8125 -82.6875 56.8125 C-82.6875 52.8525 -82.6875 48.8925 -82.6875 44.8125 C-83.0175 44.8125 -83.3475 44.8125 -83.6875 44.8125 Z M-118.6875 72.8125 C-117.6875 74.8125 -117.6875 74.8125 -117.6875 74.8125 Z M-119.6875 75.8125 C-119.6875 77.4625 -119.6875 79.1125 -119.6875 80.8125 C-119.3575 80.8125 -119.0275 80.8125 -118.6875 80.8125 C-118.6875 79.1625 -118.6875 77.5125 -118.6875 75.8125 C-119.0175 75.8125 -119.3475 75.8125 -119.6875 75.8125 Z M-120.6875 80.8125 C-120.6875 84.4425 -120.6875 88.0725 -120.6875 91.8125 C-120.3575 91.8125 -120.0275 91.8125 -119.6875 91.8125 C-119.6875 88.1825 -119.6875 84.5525 -119.6875 80.8125 C-120.0175 80.8125 -120.3475 80.8125 -120.6875 80.8125 Z M-119.6875 92.8125 C-119.6875 95.7825 -119.6875 98.7525 -119.6875 101.8125 C-119.3575 101.8125 -119.0275 101.8125 -118.6875 101.8125 C-118.6875 98.8425 -118.6875 95.8725 -118.6875 92.8125 C-119.0175 92.8125 -119.3475 92.8125 -119.6875 92.8125 Z M-118.6875 102.8125 C-118.6875 106.1125 -118.6875 109.4125 -118.6875 112.8125 C-118.3575 112.8125 -118.0275 112.8125 -117.6875 112.8125 C-117.6875 109.5125 -117.6875 106.2125 -117.6875 102.8125 C-118.0175 102.8125 -118.3475 102.8125 -118.6875 102.8125 Z M55.3125 103.8125 C55.3125 106.7825 55.3125 109.7525 55.3125 112.8125 C55.6425 112.8125 55.9725 112.8125 56.3125 112.8125 C56.3125 109.8425 56.3125 106.8725 56.3125 103.8125 C55.9825 103.8125 55.6525 103.8125 55.3125 103.8125 Z M-117.6875 112.8125 C-117.6875 116.4425 -117.6875 120.0725 -117.6875 123.8125 C-117.3575 123.8125 -117.0275 123.8125 -116.6875 123.8125 C-116.6875 120.1825 -116.6875 116.5525 -116.6875 112.8125 C-117.0175 112.8125 -117.3475 112.8125 -117.6875 112.8125 Z M54.3125 112.8125 C54.3125 116.1125 54.3125 119.4125 54.3125 122.8125 C54.6425 122.8125 54.9725 122.8125 55.3125 122.8125 C55.3125 119.5125 55.3125 116.2125 55.3125 112.8125 C54.9825 112.8125 54.6525 112.8125 54.3125 112.8125 Z M53.3125 122.8125 C53.3125 126.7725 53.3125 130.7325 53.3125 134.8125 C53.6425 134.8125 53.9725 134.8125 54.3125 134.8125 C54.3125 130.8525 54.3125 126.8925 54.3125 122.8125 C53.9825 122.8125 53.6525 122.8125 53.3125 122.8125 Z M-116.6875 125.8125 C-116.6875 129.4425 -116.6875 133.0725 -116.6875 136.8125 C-116.3575 136.8125 -116.0275 136.8125 -115.6875 136.8125 C-115.6875 133.1825 -115.6875 129.5525 -115.6875 125.8125 C-116.0175 125.8125 -116.3475 125.8125 -116.6875 125.8125 Z M52.3125 137.8125 C52.3125 151.3425 52.3125 164.8725 52.3125 178.8125 C54.55352228 174.33045544 54.4866386 171.16796683 54.2890625 166.328125 C54.26403656 165.51253113 54.23901062 164.69693726 54.21322632 163.85662842 C54.13122056 161.25815055 54.03455694 158.66045495 53.9375 156.0625 C53.87924052 154.29820878 53.82193767 152.53388569 53.765625 150.76953125 C53.62567086 146.45007296 53.47257115 142.13125769 53.3125 137.8125 C52.9825 137.8125 52.6525 137.8125 52.3125 137.8125 Z M-117.6875 185.8125 C-117.6875 189.4425 -117.6875 193.0725 -117.6875 196.8125 C-117.3575 196.8125 -117.0275 196.8125 -116.6875 196.8125 C-116.6875 193.1825 -116.6875 189.5525 -116.6875 185.8125 C-117.0175 185.8125 -117.3475 185.8125 -117.6875 185.8125 Z M103.3125 203.8125 C104.3125 205.8125 104.3125 205.8125 104.3125 205.8125 Z M102.3125 205.8125 C103.3125 207.8125 103.3125 207.8125 103.3125 207.8125 Z M101.3125 207.8125 C102.3125 210.8125 102.3125 210.8125 102.3125 210.8125 Z M100.3125 210.8125 C101.3125 212.8125 101.3125 212.8125 101.3125 212.8125 Z M98.3125 216.8125 C99.3125 218.8125 99.3125 218.8125 99.3125 218.8125 Z M-111.6875 227.8125 C-110.6875 230.8125 -110.6875 230.8125 -110.6875 230.8125 Z M-110.6875 230.8125 C-109.6875 232.8125 -109.6875 232.8125 -109.6875 232.8125 Z M-109.6875 233.8125 C-108.6875 235.8125 -108.6875 235.8125 -108.6875 235.8125 Z " fill="#030301" transform="translate(124.6875,68.1875)"/>
<path d="M0 0 C4.76997755 4.17373035 6.72689087 8.87854469 7.2746582 15.13916016 C7.3040781 18.96814565 7.33155485 22.79596383 7.3125 26.625 C7.31076279 27.70045578 7.31076279 27.70045578 7.30899048 28.79763794 C7.27247674 40.38748077 6.67348832 51.89150258 5.6875 63.4375 C5.59935532 64.47562836 5.59935532 64.47562836 5.50942993 65.534729 C4.88986087 72.67086535 4.16987521 79.78494273 3.24047852 86.88793945 C1.30968636 101.88397521 0.49876456 116.62677223 0.55395508 131.74584961 C0.56260545 135.35651275 0.53330241 138.96565778 0.50195312 142.57617188 C0.01023506 162.67939565 0.01023506 162.67939565 9 180 C11.09028282 180.81633408 11.09028282 180.81633408 13.3125 180.6875 C14.03050781 180.71199219 14.74851563 180.73648438 15.48828125 180.76171875 C20.116221 179.35822225 23.63998528 176.16975211 26.1965332 172.09106445 C27.21535279 170.02556399 28.12208196 167.94154689 29 165.8125 C33.92822981 154.67254752 40.23399071 145.37563088 48 136 C48.78375 134.96875 49.5675 133.9375 50.375 132.875 C55.52387223 127.23575898 62.12255204 120.72642842 69.9375 119.5625 C74.00607352 120.14372479 75.39463262 121.9348619 78 125 C76.29942563 129.85192123 73.68314683 134.04509072 71.0625 138.4375 C62.14348203 153.69507933 54.42304994 168.92489407 48.84692383 185.72094727 C42.47621614 204.78081126 33.12407107 220.66257438 19 235 C18.39414063 235.61875 17.78828125 236.2375 17.1640625 236.875 C7.71152585 245.7281075 -4.66304653 248.66521479 -17 251 C-17.89170898 251.17805176 -18.78341797 251.35610352 -19.70214844 251.53955078 C-27.57529404 253.00350059 -35.25082992 253.38542781 -43.25 253.375 C-44.55179199 253.37338867 -45.85358398 253.37177734 -47.19482422 253.37011719 C-71.66176492 253.15045156 -96.3998177 248.83937355 -114.69140625 231.42578125 C-131.25091199 214.02569146 -137.69608328 189.37264598 -137.34350586 165.76635742 C-137.19285237 161.27982296 -136.8362562 156.81146328 -136.49609375 152.3359375 C-135.97466097 145.1368942 -135.72859803 137.96737363 -135.6875 130.75 C-135.68355225 130.09034241 -135.67960449 129.43068481 -135.67553711 128.7510376 C-135.63617292 114.26116531 -137.00959642 99.93531658 -138.5769043 85.54199219 C-141.50082941 58.5109644 -141.50082941 58.5109644 -137 51 C-133.50065205 49.25032603 -129.81834705 49.44810446 -126 50 C-121.99657983 52.32926264 -120.37972945 53.87016792 -118.90014648 58.27246094 C-117.61629468 63.96341437 -117.43088357 69.76566296 -117.13945198 75.57611847 C-117.03323299 77.67869541 -116.91619225 79.78042694 -116.79624939 81.88226318 C-116.45732421 87.85201709 -116.13639641 93.82267273 -115.82543945 99.79394531 C-115.63373974 103.460791 -115.42867036 107.1266948 -115.21548271 110.79235077 C-115.13731913 112.18430147 -115.06438572 113.57655632 -114.99684334 114.96906281 C-114.90241537 116.91264063 -114.78962067 118.85529976 -114.67602539 120.79785156 C-114.61766006 121.9017926 -114.55929474 123.00573364 -114.49916077 124.14312744 C-113.95350964 127.26608066 -113.18649942 128.73488407 -111 131 C-104.80774431 132.41059107 -97.6608895 130.60253401 -91.50390625 129.5703125 C-86.58656666 128.76994285 -81.64722025 128.17234435 -76.703125 127.5625 C-72.95838502 127.05248525 -72.95838502 127.05248525 -69.1875 126.05078125 C-64.62767111 125.00052717 -60.07131792 124.54349502 -55.421875 124.10546875 C-54.64249573 124.03014923 -53.86311646 123.95482971 -53.06011963 123.87722778 C-49.79564985 123.56387681 -46.53140531 123.25387034 -43.26367188 122.97631836 C-40.85569735 122.76874257 -38.45178657 122.53315506 -36.046875 122.29296875 C-35.31345886 122.23755417 -34.58004272 122.18213959 -33.82440186 122.12504578 C-30.27489855 121.74895231 -28.02773839 121.01854048 -25.05053711 119.02856445 C-22.17009504 114.77426229 -22.20871583 111.29010671 -22.14453125 106.25 C-22.11263702 105.29220139 -22.0807428 104.33440277 -22.04788208 103.34757996 C-21.94807352 100.23194767 -21.88061649 97.1164708 -21.8125 94 C-21.71539029 90.77396949 -21.60962575 87.54829635 -21.50337219 84.32255554 C-21.43350772 82.18585265 -21.36635161 80.04905946 -21.30192566 77.91218567 C-21.04807978 69.64928603 -20.57627122 61.42933436 -19.9375 53.1875 C-19.15847621 42.9800079 -18.6555115 32.79106559 -18.42944336 22.55541992 C-17.99916154 7.44897288 -17.99916154 7.44897288 -13.5 1.9375 C-9.40423105 -0.94060791 -4.77631958 -1.12430895 0 0 Z " fill="#FCFC8A" transform="translate(161,91)"/>
<path d="M0 0 C3.83480639 2.61889217 5.56681746 5.97527273 6.52734375 10.46484375 C7.16121815 15.20580516 7.24767013 19.90929873 7.375 24.6875 C7.88338089 40.850546 8.90192895 56.98266305 9.89599609 73.12182617 C9.95967377 74.16977859 10.02335144 75.21773102 10.08895874 76.29743958 C10.21657995 78.38923437 10.34694663 80.48086357 10.48013306 82.5723114 C10.81157472 87.96645465 11.04715797 93.34468044 11.140625 98.74853516 C11.16539917 99.84237015 11.19017334 100.93620514 11.21569824 102.06318665 C11.25829727 104.14684041 11.28128854 106.23102008 11.28137207 108.31510925 C11.38214683 112.75849672 11.54171773 115.29566313 14.00439453 119.08056641 C17.91072402 121.58354623 21.08907777 122.03652424 25.6484375 122.44140625 C26.48996368 122.53455612 27.33148987 122.62770599 28.19851685 122.72367859 C29.99437948 122.92049295 31.79131961 123.10767558 33.58911133 123.28601074 C38.24896371 123.74848404 42.90118161 124.27889991 47.5546875 124.80078125 C48.46623596 124.90103607 49.37778442 125.00129089 50.31695557 125.10458374 C59.13361091 126.08855777 67.81569117 127.5512655 76.53125 129.203125 C82.74613695 130.36563639 89.05229381 131.11811259 95.375 131.3125 C96.59316406 131.36857422 96.59316406 131.36857422 97.8359375 131.42578125 C100.11270181 131.1884554 100.11270181 131.1884554 101.59498596 129.38595581 C103.42188095 126.2835735 103.48511038 123.99117682 103.64428711 120.39892578 C103.6773143 119.74473663 103.71034149 119.09054749 103.74436951 118.41653442 C103.81423237 117.00035942 103.87778545 115.583862 103.93571281 114.16714859 C104.02833918 111.92117568 104.13909973 109.67675079 104.254776 107.43185425 C104.53883007 101.85584424 104.79638784 96.27870198 105.04595947 90.7010498 C105.25691919 85.98703518 105.48224215 81.2741901 105.72857857 76.56188583 C105.83804274 74.35659606 105.92617644 72.1510997 106.01390076 69.94485474 C106.08356613 68.58313209 106.15431552 67.22146433 106.22631836 65.85986328 C106.30601112 64.08592697 106.30601112 64.08592697 106.38731384 62.27615356 C107.28175294 57.49341152 110.03390553 52.93232549 114 50 C116.33984375 49.56640625 116.33984375 49.56640625 118.9375 49.5625 C119.79214844 49.54316406 120.64679688 49.52382812 121.52734375 49.50390625 C124 50 124 50 126.2890625 51.359375 C132.33946451 60.69743837 128.01651225 79.63349684 126.88809204 90.12164307 C125.46154055 103.52273094 124.75111204 116.75723684 124.8828125 130.234375 C124.88957819 130.9941395 124.89634388 131.753904 124.90331459 132.53669167 C124.97075488 139.51399517 125.08258883 146.49040219 125.21240234 153.46679688 C125.70804943 181.18735165 124.55905434 207.69228334 105.33984375 229.60546875 C88.58084547 246.75616315 64.15312013 253.15486782 40.66204834 253.46061707 C38.54518981 253.46785432 36.42928472 253.45566673 34.3125 253.4375 C33.5773114 253.43512329 32.8421228 253.43274658 32.08465576 253.43029785 C19.7157944 253.36803006 7.9796626 252.24808815 -4 249 C-5.17046875 248.69964844 -6.3409375 248.39929688 -7.546875 248.08984375 C-26.61447187 242.50023096 -39.25800206 227.50981549 -49 211 C-49.48380127 210.18644043 -49.96760254 209.37288086 -50.46606445 208.53466797 C-54.38717736 201.67844938 -57.01426795 194.74931803 -59.4375 187.25 C-62.72158793 177.46510916 -66.25393001 168.17918642 -71 159 C-71.3830127 158.24638184 -71.76602539 157.49276367 -72.16064453 156.71630859 C-76.62355291 147.94919627 -81.1161202 139.32635811 -86.72265625 131.2265625 C-88.13754984 128.76023422 -88.73280541 126.8266375 -89 124 C-87.5 121.6875 -87.5 121.6875 -85 120 C-80.53290773 119.12409955 -77.66733459 119.8842656 -73.875 122.1875 C-58.8100842 133.17179976 -48.57856985 147.86867555 -40.6862793 164.54614258 C-38.75711348 168.62127571 -36.51746794 172.26664861 -34 176 C-33.67 176.99 -33.34 177.98 -33 179 C-28.28382837 180.57205721 -23.94356583 180.61840731 -19.25 179.125 C-13.597761 173.78677428 -12.21732952 165.23841059 -11.90686035 157.75500488 C-11.86832954 155.19290073 -11.86139122 152.63270052 -11.8671875 150.0703125 C-11.86575241 148.64741409 -11.86575241 148.64741409 -11.86428833 147.19577026 C-11.86360995 145.19040867 -11.86544034 143.18504484 -11.86962891 141.1796875 C-11.87492225 138.16921808 -11.86970331 135.15890196 -11.86328125 132.1484375 C-11.85658518 116.51690389 -12.45854462 101.14338186 -14.4375 85.625 C-16.6682841 66.94748965 -18.16151019 48.32826107 -18.29653931 29.51394653 C-18.30705674 28.06328503 -18.32190553 26.6126475 -18.34140015 25.16207886 C-18.44488867 16.32467282 -18.15129025 9.25215042 -13.5 1.5 C-9.28092929 -1.03144243 -4.77375627 -0.72659913 0 0 Z " fill="#FDFD8A" transform="translate(394,91)"/>
<path d="M0 0 C4.01483144 2.48671442 5.69668068 4.50657165 7 9 C7.28254982 12.52543571 7.25243735 16.03851291 7.22705078 19.57348633 C7.22734283 20.63735565 7.22763489 21.70122498 7.22793579 22.79733276 C7.22654398 26.30898228 7.21098951 29.82041886 7.1953125 33.33203125 C7.19158185 35.76869084 7.18873512 38.20535193 7.18673706 40.64201355 C7.17910474 47.05191192 7.15945958 53.4617195 7.1373291 59.87158203 C7.11686211 66.41372449 7.10773351 72.95588163 7.09765625 79.49804688 C7.07621341 92.33206996 7.04246723 105.16603015 7 118 C5.58595519 118.01096737 4.17188521 118.01871385 2.7578125 118.02514648 C1.57662842 118.03214821 1.57662842 118.03214821 0.37158203 118.03929138 C-3.14381812 117.9810497 -6.5153494 117.54374711 -10 117.0625 C-11.299375 116.88847656 -12.59875 116.71445313 -13.9375 116.53515625 C-17 116 -17 116 -18 115 C-18.18252627 113.26549486 -18.29884086 111.52398154 -18.38891602 109.78222656 C-18.44887253 108.65920639 -18.50882904 107.53618622 -18.57060242 106.37913513 C-18.63109268 105.14542679 -18.69158295 103.91171844 -18.75390625 102.640625 C-18.81935135 101.36474014 -18.88479645 100.08885529 -18.95222473 98.77430725 C-19.16441049 94.59994871 -19.36424782 90.42504008 -19.5625 86.25 C-19.61320019 85.19257914 -19.61320019 85.19257914 -19.66492462 84.11379623 C-20.50734878 66.52018366 -21.30464861 48.92924512 -21.375 31.3125 C-21.38258331 30.58430054 -21.39016663 29.85610107 -21.39797974 29.10583496 C-21.48066903 19.48737235 -21.10388425 10.27660322 -16.125 1.8125 C-11.10916261 -1.09668568 -5.64496603 -1.01301989 0 0 Z " fill="#FCFC8A" transform="translate(438,83)"/>
<path d="M0 0 C1.11246094 -0.0103125 2.22492188 -0.020625 3.37109375 -0.03125 C7.20247377 0.60653174 8.82828799 1.78521401 11.5625 4.5 C16.02166191 13.25906804 15.74012737 21.51035965 15.71484375 31.125 C15.7141432 31.84774109 15.71344265 32.57048218 15.71272087 33.31512451 C15.68525255 49.66552154 15.02465997 65.97434952 14.23010254 82.30273438 C14.0864732 85.30543827 13.95233408 88.30854034 13.81808567 91.31167603 C13.68705941 94.22332127 13.55129575 97.1347294 13.41392326 100.04608154 C13.34928878 101.42399312 13.2859054 102.80196399 13.22381783 104.17999268 C13.13773212 106.07073651 13.04476529 107.96116336 12.95141602 109.8515625 C12.90034195 110.92229004 12.84926788 111.99301758 12.79664612 113.09619141 C12.5625 115.5 12.5625 115.5 11.5625 116.5 C8.852437 116.90621294 6.15902994 117.25530389 3.4375 117.5625 C2.31601563 117.69881836 2.31601563 117.69881836 1.171875 117.83789062 C-3.39601062 118.36709689 -7.8326297 118.51439323 -12.4375 118.5 C-12.48428391 104.66984434 -12.51938702 90.83970101 -12.54112434 77.00948238 C-12.55155761 70.58742972 -12.56570862 64.16543025 -12.58837891 57.7434082 C-12.61012335 51.5448053 -12.62207207 45.34625354 -12.62725449 39.14761543 C-12.63094734 36.78376015 -12.63815854 34.41990763 -12.64896011 32.05607414 C-12.6634961 28.7429692 -12.66547703 25.4300751 -12.66455078 22.11694336 C-12.67533661 20.65390022 -12.67533661 20.65390022 -12.68634033 19.16130066 C-12.66748735 12.92158615 -12.46504546 7.33212699 -8.71484375 2.09375 C-5.68707512 -0.0251687 -3.67167129 -0.03395765 0 0 Z " fill="#FCFC8A" transform="translate(111.4375,82.5)"/>
<path d="M0 0 C3.0625 2.4375 3.0625 2.4375 5 5 C5.33 5.33 5.66 5.66 6 6 C6.09525367 8.92194665 6.12552736 11.82020329 6.11352539 14.74243164 C6.11367142 15.6594133 6.11381744 16.57639496 6.1139679 17.52116394 C6.1132684 20.56751836 6.10547428 23.61381245 6.09765625 26.66015625 C6.0957922 28.76622993 6.09436824 30.87230403 6.09336853 32.9783783 C6.08954231 38.53342883 6.07971114 44.08845341 6.06866455 49.64349365 C6.05845267 55.3072474 6.05387139 60.97100533 6.04882812 66.63476562 C6.03808896 77.75652369 6.02049132 88.87825563 6 100 C-1.26 100.99 -8.52 101.98 -16 103 C-18.14985668 81.38626234 -19.33089375 59.87501698 -19.421875 38.1477356 C-19.4322764 35.67787008 -19.44934676 33.2080235 -19.47314453 30.73825073 C-19.50280868 27.24050081 -19.50412026 23.74393758 -19.49609375 20.24609375 C-19.50720688 19.19764282 -19.51832001 18.14919189 -19.5297699 17.06896973 C-19.4727003 11.05329437 -18.99511526 7.58911543 -15 3 C-10.70321759 -0.7912786 -5.47005671 -0.99700541 0 0 Z " fill="#FBFB89" transform="translate(77,104)"/>
<path d="M0 0 C3.56761199 1.25514456 6.24111062 3.08082556 8.67260742 6.02587891 C10.59184109 10.32606367 10.40919037 14.24015644 10.36328125 18.8984375 C10.36455017 19.87350754 10.36581909 20.84857758 10.36712646 21.85319519 C10.36542953 25.02742099 10.34017234 28.20090209 10.3125 31.375 C10.30318105 33.55981393 10.29398565 35.74462839 10.28491211 37.92944336 C10.1849598 53.55227306 9.56493589 69.05939649 8.27001953 84.62939453 C7.77983764 90.7482473 7.39559507 96.87439933 7 103 C-5.24609375 102.2265625 -5.24609375 102.2265625 -10.73266602 100.97412109 C-11.53438736 100.79223236 -12.3361087 100.61034363 -13.16212463 100.42294312 C-13.7686235 100.28337189 -14.37512238 100.14380066 -15 100 C-15.09271225 87.97799661 -15.16377146 75.95607839 -15.20724869 63.93379021 C-15.22811644 58.35123942 -15.25641969 52.76893337 -15.30175781 47.18652344 C-15.34524388 41.79838788 -15.36914322 36.41048761 -15.37950897 31.02219009 C-15.38689533 28.96728944 -15.40131919 26.91240155 -15.42292023 24.85760117 C-15.45199056 21.97753906 -15.45595444 19.09844712 -15.45410156 16.21826172 C-15.46848267 15.37021469 -15.48286377 14.52216766 -15.49768066 13.64842224 C-15.46049505 8.30074339 -14.57199209 5.23598893 -11 1 C-7.51706314 -0.74146843 -3.80805141 -0.44873928 0 0 Z " fill="#FCFC89" transform="translate(476,104)"/>
<path d="M0 0 C2.37141139 4.59460958 1.07859399 10.08772185 -0.23828125 14.87890625 C-1.86642058 19.27905717 -3.9911318 23.79889961 -8.1640625 26.1640625 C-9.07285156 26.54691406 -9.07285156 26.54691406 -10 26.9375 C-9.75894531 27.47375 -9.51789063 28.01 -9.26953125 28.5625 C-8.85496875 32.21545651 -10.62715664 33.97829948 -12.6875 36.9375 C-13.74517578 38.484375 -13.74517578 38.484375 -14.82421875 40.0625 C-17 42.9375 -17 42.9375 -19.22265625 45.109375 C-21.59685266 47.55140559 -21.69800614 49.61556752 -22 52.9375 C-23.485 53.4325 -23.485 53.4325 -25 53.9375 C-25.78375 54.7625 -26.5675 55.5875 -27.375 56.4375 C-30.13712832 59.0680984 -31.22667801 59.9375 -35 59.9375 C-37.83713564 58.55192213 -39.77001704 57.16748296 -42 54.9375 C-42.86482049 49.44816576 -42.86307505 44.41129978 -39.625 39.75 C-38.75875 38.821875 -37.8925 37.89375 -37 36.9375 C-36.34 36.9375 -35.68 36.9375 -35 36.9375 C-33.58640653 33.58719933 -33.58640653 33.58719933 -32.6171875 30.09375 C-31.82747919 27.33476909 -30.53374907 25.14797522 -29.0625 22.6875 C-28.53785156 21.79546875 -28.01320313 20.9034375 -27.47265625 19.984375 C-26.98667969 19.30890625 -26.50070312 18.6334375 -26 17.9375 C-25.34 17.9375 -24.68 17.9375 -24 17.9375 C-23.566875 16.82375 -23.566875 16.82375 -23.125 15.6875 C-22 12.9375 -22 12.9375 -20.9375 10.875 C-19.9183933 8.98480662 -19.9183933 8.98480662 -19.625 6.9375 C-18.49492445 3.32125823 -15.97609735 1.4797763 -12.75 -0.3125 C-8.50390634 -1.47052554 -4.0359771 -2.14411284 0 0 Z " fill="#000000" transform="translate(344,21.0625)"/>
<path d="M0 0 C5.36838773 2.73682512 7.05655876 5.36402041 9 11 C9.33 12.11375 9.66 13.2275 10 14.375 C10.33 15.24125 10.66 16.1075 11 17 C11.99 17.33 12.98 17.66 14 18 C16.0714047 20.94776823 17.21355562 23.51717489 18 27 C18.6492959 28.34187818 19.31731862 29.67479497 20 31 C20.309375 31.886875 20.61875 32.77375 20.9375 33.6875 C21.4634375 34.8321875 21.4634375 34.8321875 22 36 C22.99 36.33 23.98 36.66 25 37 C27.3635773 40.2726455 28.43292908 43.03050357 29 47 C29.2475 48.134375 29.495 49.26875 29.75 50.4375 C30.04032413 54.57461881 29.12978031 56.50716029 27 60 C21.91282497 60.29924559 19.17095643 59.93094235 15 57 C14.319375 56.731875 13.63875 56.46375 12.9375 56.1875 C9.95370718 54.35872376 8.66452746 52.03181788 7 49 C7.020625 48.154375 7.04125 47.30875 7.0625 46.4375 C6.96675587 42.70347874 4.6540757 41.5386811 2 39 C0.83398054 37.51038339 -0.2896662 35.98689007 -1.375 34.4375 C-1.89835938 33.69371094 -2.42171875 32.94992188 -2.9609375 32.18359375 C-4 30 -4 30 -3.6640625 27.72265625 C-3.33535156 26.86994141 -3.33535156 26.86994141 -3 26 C-3.66 25.67 -4.32 25.34 -5 25 C-9.17865398 20.41602624 -12.72168815 16.40117251 -13 10 C-13.185625 8.72125 -13.37125 7.4425 -13.5625 6.125 C-13.706875 5.09375 -13.85125 4.0625 -14 3 C-5.62096111 -1.95511691 -5.62096111 -1.95511691 0 0 Z M5 6 C6 8 6 8 6 8 Z " fill="#000000" transform="translate(212,21)"/>
<path d="M0 0 C4.70149254 2.40298507 4.70149254 2.40298507 6 5 C6.10094764 6.77643891 6.13837361 8.55664603 6.14526367 10.3359375 C6.15164352 11.45049316 6.15802338 12.56504883 6.16459656 13.71337891 C6.16570938 14.92171387 6.1668222 16.13004883 6.16796875 17.375 C6.17129715 18.61040527 6.17462555 19.84581055 6.17805481 21.11865234 C6.1831249 23.73469672 6.18546311 26.35074759 6.18530273 28.96679688 C6.18522122 31.65566701 6.19219846 34.34436772 6.20581055 37.03320312 C6.2240503 40.89718891 6.22903555 44.76097558 6.23046875 48.625 C6.23765427 49.83333496 6.24483978 51.04166992 6.25224304 52.28662109 C6.24916641 53.40117676 6.24608978 54.51573242 6.24291992 55.6640625 C6.24434494 56.64842285 6.24576996 57.6327832 6.24723816 58.64697266 C6 61 6 61 4 63 C0.22709428 65.72487635 -2.34508798 66.67884134 -7 66 C-9.65202332 64.34527588 -9.65202332 64.34527588 -12 62 C-12.60127258 59.2411499 -12.60127258 59.2411499 -12.56762695 56.03808594 C-12.5672493 54.83714294 -12.56687164 53.63619995 -12.56648254 52.39886475 C-12.54067612 51.10708313 -12.51486969 49.81530151 -12.48828125 48.484375 C-12.47895092 47.14489055 -12.47183584 45.80538899 -12.46684265 44.46588135 C-12.44778922 40.94731189 -12.39870564 37.42978125 -12.34332275 33.91162109 C-12.29209278 30.31882785 -12.2693208 26.72586604 -12.24414062 23.1328125 C-12.19058315 16.08811774 -12.10529231 9.04412683 -12 2 C-7.39269113 -0.47346485 -5.12946531 -1.52792584 0 0 Z M4 5 C4 23.15 4 41.3 4 60 C4.33 60 4.66 60 5 60 C5 41.85 5 23.7 5 5 C4.67 5 4.34 5 4 5 Z " fill="#000000" transform="translate(276,3)"/>
<path d="M0 0 C4.68650133 0.53934038 9.25327021 1.24224517 13.8840332 2.15551758 C23.5050197 3.95291582 33.04820208 4.30531961 42.8125 4.3125 C44.09842041 4.31773682 45.38434082 4.32297363 46.70922852 4.32836914 C54.26914508 4.27363277 61.52322816 3.66139894 68.9831543 2.42651367 C71.70937262 2.04108813 74.252783 1.91992202 77 2 C67.39323748 7.55429651 53.58345291 6.36514152 42.8125 6.3125 C41.73539764 6.31126129 41.73539764 6.31126129 40.63653564 6.30999756 C26.66157355 6.27310791 13.42969467 5.01146724 0 1 C0 0.67 0 0.34 0 0 Z " fill="#000000" transform="translate(74,356)"/>
<path d="M0 0 C0.33 0 0.66 0 1 0 C1 18.81 1 37.62 1 57 C0.67 57 0.34 57 0 57 C0 38.19 0 19.38 0 0 Z " fill="#000000" transform="translate(262,7)"/>
<path d="M0 0 C10.56 0 21.12 0 32 0 C32 0.33 32 0.66 32 1 C21.44 1 10.88 1 0 1 C0 0.67 0 0.34 0 0 Z " fill="#000000" transform="translate(411,361)"/>
<path d="M0 0 C0.99 0.66 1.98 1.32 3 2 C-1.95 2 -6.9 2 -12 2 C-7.22806914 -0.38596543 -5.22573558 -0.33179274 0 0 Z " fill="#000000" transform="translate(236,193)"/>
<path d="M0 0 C0.33 0 0.66 0 1 0 C1 5.28 1 10.56 1 16 C0.67 16 0.34 16 0 16 C0 10.72 0 5.44 0 0 Z " fill="#000000" transform="translate(358,123)"/>
<path d="M0 0 C4.29 0 8.58 0 13 0 C13 0.33 13 0.66 13 1 C8.71 1 4.42 1 0 1 C0 0.67 0 0.34 0 0 Z " fill="#000000" transform="translate(466,86)"/>
<path d="M0 0 C4.29 0 8.58 0 13 0 C13 0.33 13 0.66 13 1 C8.71 1 4.42 1 0 1 C0 0.67 0 0.34 0 0 Z " fill="#000000" transform="translate(65,86)"/>
<path d="M0 0 C-3.63423209 2.32590854 -6.77088331 2.16265833 -11 2 C-11 1.67 -11 1.34 -11 1 C-7.27569643 0.30710631 -3.78916254 -0.11144596 0 0 Z " fill="#000000" transform="translate(462,358)"/>
<path d="M0 0 C3.3 0.33 6.6 0.66 10 1 C10 1.33 10 1.66 10 2 C6.7 1.67 3.4 1.34 0 1 C0 0.67 0 0.34 0 0 Z " fill="#000000" transform="translate(393,358)"/>
<path d="M0 0 C0.33 0 0.66 0 1 0 C1 3.3 1 6.6 1 10 C0.67 10 0.34 10 0 10 C0 6.7 0 3.4 0 0 Z " fill="#000000" transform="translate(8,228)"/>
<path d="M0 0 C0.33 0 0.66 0 1 0 C1 3.3 1 6.6 1 10 C0.67 10 0.34 10 0 10 C0 6.7 0 3.4 0 0 Z " fill="#000000" transform="translate(183,153)"/>
<path d="M0 0 C2.64 0 5.28 0 8 0 C8 0.33 8 0.66 8 1 C5.36 1 2.72 1 0 1 C0 0.67 0 0.34 0 0 Z " fill="#000000" transform="translate(443,360)"/>
<path d="M0 0 C2.64 0 5.28 0 8 0 C8 0.33 8 0.66 8 1 C5.36 1 2.72 1 0 1 C0 0.67 0 0.34 0 0 Z " fill="#000000" transform="translate(403,360)"/>
<path d="M0 0 C0.33 0 0.66 0 1 0 C1 2.64 1 5.28 1 8 C0.67 8 0.34 8 0 8 C0 5.36 0 2.72 0 0 Z " fill="#000000" transform="translate(184,142)"/>
<path d="M0 0 C0.33 0 0.66 0 1 0 C1.33 2.31 1.66 4.62 2 7 C1.34 6.67 0.68 6.34 0 6 C0 4.02 0 2.04 0 0 Z " fill="#000000" transform="translate(197,26)"/>
<path d="M0 0 C0.66 0.33 1.32 0.66 2 1 C0.68 1.99 -0.64 2.98 -2 4 C-1.34 2.68 -0.68 1.36 0 0 Z " fill="#000000" transform="translate(49,95)"/>
<path d="M0 0 C0.33 0 0.66 0 1 0 C1 2.31 1 4.62 1 7 C0.67 7 0.34 7 0 7 C0 4.69 0 2.38 0 0 Z " fill="#000000" transform="translate(300,69)"/>
<path d="M0 0 C0.33 0 0.66 0 1 0 C1 1.98 1 3.96 1 6 C0.67 6 0.34 6 0 6 C0 4.02 0 2.04 0 0 Z " fill="#000000" transform="translate(185,127)"/>
<path d="M0 0 C0.99 0.33 1.98 0.66 3 1 C1.35 1.33 -0.3 1.66 -2 2 C-1.34 1.34 -0.68 0.68 0 0 Z " fill="#000000" transform="translate(20,124)"/>
<path d="M0 0 C0.99 0.33 1.98 0.66 3 1 C1.35 1.33 -0.3 1.66 -2 2 C-1.34 1.34 -0.68 0.68 0 0 Z " fill="#000000" transform="translate(311,81)"/>
<path d="M0 0 C1.98 0 3.96 0 6 0 C6 0.33 6 0.66 6 1 C4.02 1 2.04 1 0 1 C0 0.67 0 0.34 0 0 Z " fill="#000000" transform="translate(269,70)"/>
<path d="M0 0 C1.98 0.99 1.98 0.99 4 2 C2.68 1.67 1.36 1.34 0 1 C0 0.67 0 0.34 0 0 Z " fill="#000000" transform="translate(367,349)"/>
<path d="M0 0 C1.98 0.99 1.98 0.99 4 2 C2.68 1.67 1.36 1.34 0 1 C0 0.67 0 0.34 0 0 Z " fill="#000000" transform="translate(55,349)"/>
<path d="M0 0 C0 0.99 0 1.98 0 3 C-0.66 2.67 -1.32 2.34 -2 2 C-1.34 1.34 -0.68 0.68 0 0 Z " fill="#000000" transform="translate(507,335)"/>
<path d="M0 0 C0.33 0 0.66 0 1 0 C1 1.65 1 3.3 1 5 C0.67 5 0.34 5 0 5 C0 3.35 0 1.7 0 0 Z " fill="#000000" transform="translate(8,276)"/>
<path d="M0 0 C1.65 0 3.3 0 5 0 C5 0.33 5 0.66 5 1 C3.35 1 1.7 1 0 1 C0 0.67 0 0.34 0 0 Z " fill="#000000" transform="translate(23,123)"/>
<path d="M0 0 C0.33 0 0.66 0 1 0 C1 1.65 1 3.3 1 5 C0.67 5 0.34 5 0 5 C0 3.35 0 1.7 0 0 Z " fill="#000000" transform="translate(357,114)"/>
<path d="M0 0 C0.99 0.495 0.99 0.495 2 1 C1.67 1.99 1.34 2.98 1 4 C0.67 2.68 0.34 1.36 0 0 Z " fill="#000000" transform="translate(181,90)"/>
<path d="M0 0 C0.99 0.33 1.98 0.66 3 1 C1.68 1.33 0.36 1.66 -1 2 C-0.67 1.34 -0.34 0.68 0 0 Z " fill="#000000" transform="translate(59,88)"/>
<path d="M0 0 C4 1 4 1 4 1 Z " fill="#000000" transform="translate(462,357)"/>
<path d="M0 0 C4 1 4 1 4 1 Z " fill="#000000" transform="translate(151,357)"/>
<path d="M0 0 C4 1 4 1 4 1 Z " fill="#000000" transform="translate(466,356)"/>
<path d="M0 0 C0.99 0.495 0.99 0.495 2 1 C1.67 1.66 1.34 2.32 1 3 C0.67 2.01 0.34 1.02 0 0 Z " fill="#000000" transform="translate(339,323)"/>
<path d="M0 0 C1 4 1 4 1 4 Z " fill="#000000" transform="translate(533,286)"/>
<path d="M0 0 C4 1 4 1 4 1 Z " fill="#000000" transform="translate(516,123)"/>
<path d="M0 0 C4 1 4 1 4 1 Z " fill="#000000" transform="translate(506,123)"/>
<path d="M0 0 C4 1 4 1 4 1 Z " fill="#000000" transform="translate(34,123)"/>
<path d="M0 0 C1 4 1 4 1 4 Z " fill="#000000" transform="translate(185,105)"/>
<path d="M0 0 C0.66 0.33 1.32 0.66 2 1 C1.01 1 0.02 1 -1 1 C-0.67 0.67 -0.34 0.34 0 0 Z " fill="#000000" transform="translate(372,77)"/>
<path d="M0 0 C0.99 0.33 1.98 0.66 3 1 C2.01 1 1.02 1 0 1 C0 0.67 0 0.34 0 0 Z " fill="#000000" transform="translate(129,70)"/>
<path d="M0 0 C4 1 4 1 4 1 Z " fill="#000000" transform="translate(334,18)"/>
<path d="M0 0 C4 1 4 1 4 1 Z " fill="#000000" transform="translate(270,0)"/>
<path d="M0 0 C3 1 3 1 3 1 Z " fill="#000000" transform="translate(470,355)"/>
<path d="M0 0 C3 1 3 1 3 1 Z " fill="#000000" transform="translate(71,355)"/>
<path d="" fill="#000000" transform="translate(0,0)"/>
<path d="" fill="#000000" transform="translate(0,0)"/>
<path d="M0 0 C0.66 0 1.32 0 2 0 C1.67 0.66 1.34 1.32 1 2 C0.67 1.34 0.34 0.68 0 0 Z " fill="#000000" transform="translate(334,203)"/>
<path d="M0 0 C3 1 3 1 3 1 Z " fill="#000000" transform="translate(521,124)"/>
<path d="" fill="#000000" transform="translate(0,0)"/>
<path d="M0 0 C3 1 3 1 3 1 Z " fill="#000000" transform="translate(479,87)"/>
<path d="M0 0 C3 1 3 1 3 1 Z " fill="#000000" transform="translate(62,87)"/>
<path d="M0 0 C0.66 0 1.32 0 2 0 C1.67 0.66 1.34 1.32 1 2 C0.67 1.34 0.34 0.68 0 0 Z " fill="#000000" transform="translate(175,82)"/>
<path d="M0 0 C3 1 3 1 3 1 Z " fill="#000000" transform="translate(306,81)"/>
<path d="M0 0 C3 1 3 1 3 1 Z " fill="#000000" transform="translate(234,81)"/>
<path d="M0 0 C3 1 3 1 3 1 Z " fill="#000000" transform="translate(229,81)"/>
<path d="M0 0 C3 1 3 1 3 1 Z " fill="#000000" transform="translate(420,66)"/>
<path d="M0 0 C3 1 3 1 3 1 Z " fill="#000000" transform="translate(121,66)"/>
<path d="M0 0 C3 1 3 1 3 1 Z " fill="#000000" transform="translate(437,65)"/>
<path d="M0 0 C3 1 3 1 3 1 Z " fill="#000000" transform="translate(206,18)"/>
<path d="M0 0 C2 1 2 1 2 1 Z " fill="#000000" transform="translate(481,352)"/>
<path d="M0 0 C2 1 2 1 2 1 Z " fill="#000000" transform="translate(373,352)"/>
<path d="M0 0 C2 1 2 1 2 1 Z " fill="#000000" transform="translate(169,352)"/>
<path d="M0 0 C2 1 2 1 2 1 Z " fill="#000000" transform="translate(61,352)"/>
<path d="M0 0 C2 1 2 1 2 1 Z " fill="#000000" transform="translate(483,351)"/>
<path d="M0 0 C2 1 2 1 2 1 Z " fill="#000000" transform="translate(371,351)"/>
<path d="M0 0 C2 1 2 1 2 1 Z " fill="#000000" transform="translate(171,351)"/>
<path d="M0 0 C2 1 2 1 2 1 Z " fill="#000000" transform="translate(59,351)"/>
<path d="M0 0 C2 1 2 1 2 1 Z " fill="#000000" transform="translate(485,350)"/>
<path d="M0 0 C2 1 2 1 2 1 Z " fill="#000000" transform="translate(173,350)"/>
<path d="M0 0 C2 1 2 1 2 1 Z " fill="#000000" transform="translate(487,349)"/>
<path d="M0 0 C2 1 2 1 2 1 Z " fill="#000000" transform="translate(175,349)"/>
<path d="M0 0 C2 1 2 1 2 1 Z " fill="#000000" transform="translate(489,348)"/>
<path d="M0 0 C2 1 2 1 2 1 Z " fill="#000000" transform="translate(53,348)"/>
<path d="M0 0 C2 1 2 1 2 1 Z " fill="#000000" transform="translate(492,346)"/>
<path d="M0 0 C2 1 2 1 2 1 Z " fill="#000000" transform="translate(362,346)"/>
<path d="M0 0 C2 1 2 1 2 1 Z " fill="#000000" transform="translate(180,346)"/>
<path d="M0 0 C2 1 2 1 2 1 Z " fill="#000000" transform="translate(499,342)"/>
<path d="M0 0 C2 1 2 1 2 1 Z " fill="#000000" transform="translate(43,342)"/>
<path d="" fill="#000000" transform="translate(0,0)"/>
<path d="" fill="#000000" transform="translate(0,0)"/>
<path d="" fill="#000000" transform="translate(0,0)"/>
<path d="" fill="#000000" transform="translate(0,0)"/>
<path d="" fill="#000000" transform="translate(0,0)"/>
<path d="" fill="#000000" transform="translate(0,0)"/>
<path d="" fill="#000000" transform="translate(0,0)"/>
<path d="" fill="#000000" transform="translate(0,0)"/>
<path d="" fill="#000000" transform="translate(0,0)"/>
<path d="" fill="#000000" transform="translate(0,0)"/>
<path d="" fill="#000000" transform="translate(0,0)"/>
<path d="" fill="#000000" transform="translate(0,0)"/>
<path d="" fill="#000000" transform="translate(0,0)"/>
<path d="" fill="#000000" transform="translate(0,0)"/>
<path d="M0 0 C2 1 2 1 2 1 Z " fill="#000000" transform="translate(301,196)"/>
<path d="M0 0 C2 1 2 1 2 1 Z " fill="#000000" transform="translate(241,196)"/>
<path d="M0 0 C2 1 2 1 2 1 Z " fill="#000000" transform="translate(303,195)"/>
<path d="M0 0 C2 1 2 1 2 1 Z " fill="#000000" transform="translate(239,195)"/>
<path d="M0 0 C2 1 2 1 2 1 Z " fill="#000000" transform="translate(527,127)"/>
<path d="M0 0 C2 1 2 1 2 1 Z " fill="#000000" transform="translate(15,127)"/>
<path d="M0 0 C2 1 2 1 2 1 Z " fill="#000000" transform="translate(525,126)"/>
<path d="M0 0 C2 1 2 1 2 1 Z " fill="#000000" transform="translate(486,90)"/>
<path d="M0 0 C2 1 2 1 2 1 Z " fill="#000000" transform="translate(56,90)"/>
<path d="M0 0 C2 1 2 1 2 1 Z " fill="#000000" transform="translate(484,89)"/>
<path d="M0 0 C2 1 2 1 2 1 Z " fill="#000000" transform="translate(482,88)"/>
<path d="" fill="#000000" transform="translate(0,0)"/>
<path d="M0 0 C2 1 2 1 2 1 Z " fill="#000000" transform="translate(232,82)"/>
<path d="M0 0 C2 1 2 1 2 1 Z " fill="#000000" transform="translate(314,80)"/>
<path d="M0 0 C2 1 2 1 2 1 Z " fill="#000000" transform="translate(402,77)"/>
<path d="M0 0 C2 1 2 1 2 1 Z " fill="#000000" transform="translate(374,76)"/>
<path d="" fill="#000000" transform="translate(0,0)"/>
<path d="M0 0 C2 1 2 1 2 1 Z " fill="#000000" transform="translate(168,76)"/>
<path d="M0 0 C2 1 2 1 2 1 Z " fill="#000000" transform="translate(141,76)"/>
<path d="M0 0 C2 1 2 1 2 1 Z " fill="#000000" transform="translate(143,75)"/>
<path d="M0 0 C2 1 2 1 2 1 Z " fill="#000000" transform="translate(267,69)"/>
<path d="" fill="#000000" transform="translate(0,0)"/>
<path d="M0 0 C2 1 2 1 2 1 Z " fill="#000000" transform="translate(446,68)"/>
<path d="M0 0 C2 1 2 1 2 1 Z " fill="#000000" transform="translate(416,68)"/>
<path d="M0 0 C2 1 2 1 2 1 Z " fill="#000000" transform="translate(126,68)"/>
<path d="M0 0 C2 1 2 1 2 1 Z " fill="#000000" transform="translate(96,68)"/>
<path d="M0 0 C2 1 2 1 2 1 Z " fill="#000000" transform="translate(444,67)"/>
<path d="M0 0 C2 1 2 1 2 1 Z " fill="#000000" transform="translate(418,67)"/>
<path d="" fill="#000000" transform="translate(0,0)"/>
<path d="M0 0 C2 1 2 1 2 1 Z " fill="#000000" transform="translate(124,67)"/>
<path d="M0 0 C2 1 2 1 2 1 Z " fill="#000000" transform="translate(98,67)"/>
<path d="M0 0 C2 1 2 1 2 1 Z " fill="#000000" transform="translate(442,66)"/>
<path d="" fill="#000000" transform="translate(0,0)"/>
<path d="M0 0 C2 1 2 1 2 1 Z " fill="#000000" transform="translate(100,66)"/>
<path d="M0 0 C2 1 2 1 2 1 Z " fill="#000000" transform="translate(425,65)"/>
<path d="M0 0 C2 1 2 1 2 1 Z " fill="#000000" transform="translate(117,65)"/>
<path d="M0 0 C2 1 2 1 2 1 Z " fill="#000000" transform="translate(104,65)"/>
<path d="" fill="#000000" transform="translate(0,0)"/>
<path d="" fill="#000000" transform="translate(0,0)"/>
<path d="" fill="#000000" transform="translate(0,0)"/>
<path d="" fill="#000000" transform="translate(0,0)"/>
<path d="" fill="#000000" transform="translate(0,0)"/>
<path d="" fill="#000000" transform="translate(0,0)"/>
<path d="M0 0 C2 1 2 1 2 1 Z " fill="#000000" transform="translate(330,20)"/>
<path d="M0 0 C2 1 2 1 2 1 Z " fill="#000000" transform="translate(338,19)"/>
<path d="M0 0 C2 1 2 1 2 1 Z " fill="#000000" transform="translate(332,19)"/>
<path d="M0 0 C2 1 2 1 2 1 Z " fill="#000000" transform="translate(210,19)"/>
<path d="M0 0 C2 1 2 1 2 1 Z " fill="#000000" transform="translate(203,19)"/>
<path d="M0 0 C2 1 2 1 2 1 Z " fill="#000000" transform="translate(266,2)"/>
<path d="M0 0 C2 1 2 1 2 1 Z " fill="#000000" transform="translate(274,1)"/>
<path d="M0 0 C2 1 2 1 2 1 Z " fill="#000000" transform="translate(268,1)"/>
<path d="" fill="#000000" transform="translate(0,0)"/>
<path d="" fill="#000000" transform="translate(0,0)"/>
<path d="" fill="#000000" transform="translate(0,0)"/>
<path d="" fill="#000000" transform="translate(0,0)"/>
<path d="" fill="#000000" transform="translate(0,0)"/>
<path d="" fill="#000000" transform="translate(0,0)"/>
<path d="" fill="#000000" transform="translate(0,0)"/>
<path d="" fill="#000000" transform="translate(0,0)"/>
<path d="" fill="#000000" transform="translate(0,0)"/>
<path d="" fill="#000000" transform="translate(0,0)"/>
<path d="" fill="#000000" transform="translate(0,0)"/>
<path d="" fill="#000000" transform="translate(0,0)"/>
<path d="" fill="#000000" transform="translate(0,0)"/>
<path d="" fill="#000000" transform="translate(0,0)"/>
<path d="" fill="#000000" transform="translate(0,0)"/>
<path d="" fill="#000000" transform="translate(0,0)"/>
<path d="" fill="#000000" transform="translate(0,0)"/>
<path d="" fill="#000000" transform="translate(0,0)"/>
<path d="" fill="#000000" transform="translate(0,0)"/>
<path d="" fill="#000000" transform="translate(0,0)"/>
<path d="" fill="#000000" transform="translate(0,0)"/>
<path d="" fill="#000000" transform="translate(0,0)"/>
<path d="" fill="#000000" transform="translate(0,0)"/>
<path d="" fill="#000000" transform="translate(0,0)"/>
<path d="" fill="#000000" transform="translate(0,0)"/>
<path d="" fill="#000000" transform="translate(0,0)"/>
<path d="" fill="#000000" transform="translate(0,0)"/>
<path d="" fill="#000000" transform="translate(0,0)"/>
<path d="" fill="#000000" transform="translate(0,0)"/>
<path d="" fill="#000000" transform="translate(0,0)"/>
<path d="" fill="#000000" transform="translate(0,0)"/>
<path d="" fill="#000000" transform="translate(0,0)"/>
<path d="" fill="#000000" transform="translate(0,0)"/>
<path d="" fill="#000000" transform="translate(0,0)"/>
<path d="" fill="#000000" transform="translate(0,0)"/>
<path d="" fill="#000000" transform="translate(0,0)"/>
<path d="" fill="#000000" transform="translate(0,0)"/>
<path d="" fill="#000000" transform="translate(0,0)"/>
<path d="" fill="#000000" transform="translate(0,0)"/>
<path d="" fill="#000000" transform="translate(0,0)"/>
<path d="" fill="#000000" transform="translate(0,0)"/>
<path d="" fill="#000000" transform="translate(0,0)"/>
<path d="" fill="#000000" transform="translate(0,0)"/>
<path d="" fill="#000000" transform="translate(0,0)"/>
<path d="" fill="#000000" transform="translate(0,0)"/>
<path d="" fill="#000000" transform="translate(0,0)"/>
<path d="" fill="#000000" transform="translate(0,0)"/>
<path d="" fill="#000000" transform="translate(0,0)"/>
<path d="" fill="#000000" transform="translate(0,0)"/>
<path d="" fill="#000000" transform="translate(0,0)"/>
<path d="" fill="#000000" transform="translate(0,0)"/>
<path d="" fill="#000000" transform="translate(0,0)"/>
<path d="" fill="#000000" transform="translate(0,0)"/>
<path d="" fill="#000000" transform="translate(0,0)"/>
<path d="" fill="#000000" transform="translate(0,0)"/>
<path d="" fill="#000000" transform="translate(0,0)"/>
<path d="" fill="#000000" transform="translate(0,0)"/>
<path d="" fill="#000000" transform="translate(0,0)"/>
<path d="" fill="#000000" transform="translate(0,0)"/>
<path d="" fill="#000000" transform="translate(0,0)"/>
<path d="" fill="#000000" transform="translate(0,0)"/>
<path d="" fill="#000000" transform="translate(0,0)"/>
<path d="" fill="#000000" transform="translate(0,0)"/>
<path d="" fill="#000000" transform="translate(0,0)"/>
<path d="" fill="#000000" transform="translate(0,0)"/>
<path d="" fill="#000000" transform="translate(0,0)"/>
<path d="" fill="#000000" transform="translate(0,0)"/>
<path d="" fill="#000000" transform="translate(0,0)"/>
<path d="" fill="#000000" transform="translate(0,0)"/>
<path d="" fill="#000000" transform="translate(0,0)"/>
<path d="" fill="#000000" transform="translate(0,0)"/>
<path d="" fill="#000000" transform="translate(0,0)"/>
<path d="" fill="#000000" transform="translate(0,0)"/>
<path d="" fill="#000000" transform="translate(0,0)"/>
<path d="" fill="#000000" transform="translate(0,0)"/>
<path d="" fill="#000000" transform="translate(0,0)"/>
<path d="" fill="#000000" transform="translate(0,0)"/>
<path d="" fill="#000000" transform="translate(0,0)"/>
<path d="" fill="#000000" transform="translate(0,0)"/>
<path d="" fill="#000000" transform="translate(0,0)"/>
<path d="" fill="#000000" transform="translate(0,0)"/>
<path d="" fill="#000000" transform="translate(0,0)"/>
<path d="" fill="#000000" transform="translate(0,0)"/>
<path d="" fill="#000000" transform="translate(0,0)"/>
<path d="" fill="#000000" transform="translate(0,0)"/>
<path d="" fill="#000000" transform="translate(0,0)"/>
<path d="" fill="#000000" transform="translate(0,0)"/>
<path d="" fill="#000000" transform="translate(0,0)"/>
<path d="" fill="#000000" transform="translate(0,0)"/>
<path d="" fill="#000000" transform="translate(0,0)"/>
<path d="" fill="#000000" transform="translate(0,0)"/>
<path d="" fill="#000000" transform="translate(0,0)"/>
<path d="" fill="#000000" transform="translate(0,0)"/>
<path d="" fill="#000000" transform="translate(0,0)"/>
<path d="" fill="#000000" transform="translate(0,0)"/>
<path d="" fill="#000000" transform="translate(0,0)"/>
<path d="" fill="#000000" transform="translate(0,0)"/>
<path d="" fill="#000000" transform="translate(0,0)"/>
<path d="" fill="#000000" transform="translate(0,0)"/>
<path d="" fill="#000000" transform="translate(0,0)"/>
<path d="" fill="#000000" transform="translate(0,0)"/>
<path d="" fill="#000000" transform="translate(0,0)"/>
<path d="" fill="#000000" transform="translate(0,0)"/>
<path d="" fill="#000000" transform="translate(0,0)"/>
<path d="" fill="#000000" transform="translate(0,0)"/>
<path d="" fill="#000000" transform="translate(0,0)"/>
<path d="" fill="#000000" transform="translate(0,0)"/>
<path d="" fill="#000000" transform="translate(0,0)"/>
<path d="" fill="#000000" transform="translate(0,0)"/>
<path d="" fill="#000000" transform="translate(0,0)"/>
<path d="" fill="#000000" transform="translate(0,0)"/>
<path d="" fill="#000000" transform="translate(0,0)"/>
<path d="" fill="#000000" transform="translate(0,0)"/>
<path d="" fill="#000000" transform="translate(0,0)"/>
<path d="" fill="#000000" transform="translate(0,0)"/>
<path d="" fill="#000000" transform="translate(0,0)"/>
<path d="" fill="#000000" transform="translate(0,0)"/>
<path d="" fill="#000000" transform="translate(0,0)"/>
<path d="" fill="#000000" transform="translate(0,0)"/>
<path d="" fill="#000000" transform="translate(0,0)"/>
<path d="" fill="#000000" transform="translate(0,0)"/>
<path d="" fill="#000000" transform="translate(0,0)"/>
<path d="" fill="#000000" transform="translate(0,0)"/>
<path d="" fill="#000000" transform="translate(0,0)"/>
<path d="" fill="#000000" transform="translate(0,0)"/>
<path d="" fill="#000000" transform="translate(0,0)"/>
<path d="" fill="#000000" transform="translate(0,0)"/>
<path d="" fill="#000000" transform="translate(0,0)"/>
<path d="" fill="#000000" transform="translate(0,0)"/>
<path d="" fill="#000000" transform="translate(0,0)"/>
<path d="" fill="#000000" transform="translate(0,0)"/>
<path d="" fill="#000000" transform="translate(0,0)"/>
<path d="" fill="#000000" transform="translate(0,0)"/>
<path d="" fill="#000000" transform="translate(0,0)"/>
<path d="" fill="#000000" transform="translate(0,0)"/>
<path d="" fill="#000000" transform="translate(0,0)"/>
<path d="" fill="#000000" transform="translate(0,0)"/>
<path d="" fill="#000000" transform="translate(0,0)"/>
<path d="" fill="#000000" transform="translate(0,0)"/>
<path d="" fill="#000000" transform="translate(0,0)"/>
<path d="" fill="#000000" transform="translate(0,0)"/>
<path d="" fill="#000000" transform="translate(0,0)"/>
<path d="" fill="#000000" transform="translate(0,0)"/>
<path d="" fill="#000000" transform="translate(0,0)"/>
<path d="" fill="#000000" transform="translate(0,0)"/>
<path d="" fill="#000000" transform="translate(0,0)"/>
<path d="" fill="#000000" transform="translate(0,0)"/>
<path d="" fill="#000000" transform="translate(0,0)"/>
<path d="" fill="#000000" transform="translate(0,0)"/>
<path d="" fill="#000000" transform="translate(0,0)"/>
<path d="" fill="#000000" transform="translate(0,0)"/>
<path d="" fill="#000000" transform="translate(0,0)"/>
<path d="" fill="#000000" transform="translate(0,0)"/>
<path d="" fill="#000000" transform="translate(0,0)"/>
<path d="" fill="#000000" transform="translate(0,0)"/>
<path d="" fill="#000000" transform="translate(0,0)"/>
<path d="" fill="#000000" transform="translate(0,0)"/>
<path d="" fill="#000000" transform="translate(0,0)"/>
<path d="" fill="#000000" transform="translate(0,0)"/>
<path d="" fill="#000000" transform="translate(0,0)"/>
<path d="" fill="#000000" transform="translate(0,0)"/>
<path d="" fill="#000000" transform="translate(0,0)"/>
<path d="" fill="#000000" transform="translate(0,0)"/>
<path d="" fill="#000000" transform="translate(0,0)"/>
<path d="" fill="#000000" transform="translate(0,0)"/>
<path d="" fill="#000000" transform="translate(0,0)"/>
<path d="" fill="#000000" transform="translate(0,0)"/>
<path d="" fill="#000000" transform="translate(0,0)"/>
<path d="" fill="#000000" transform="translate(0,0)"/>
<path d="" fill="#000000" transform="translate(0,0)"/>
<path d="" fill="#000000" transform="translate(0,0)"/>
<path d="" fill="#000000" transform="translate(0,0)"/>
<path d="" fill="#000000" transform="translate(0,0)"/>
<path d="" fill="#000000" transform="translate(0,0)"/>
<path d="" fill="#000000" transform="translate(0,0)"/>
<path d="" fill="#000000" transform="translate(0,0)"/>
<path d="" fill="#000000" transform="translate(0,0)"/>
<path d="" fill="#000000" transform="translate(0,0)"/>
<path d="" fill="#000000" transform="translate(0,0)"/>
<path d="" fill="#000000" transform="translate(0,0)"/>
<path d="" fill="#000000" transform="translate(0,0)"/>
<path d="" fill="#000000" transform="translate(0,0)"/>
<path d="" fill="#000000" transform="translate(0,0)"/>
<path d="" fill="#000000" transform="translate(0,0)"/>
<path d="" fill="#000000" transform="translate(0,0)"/>
<path d="" fill="#000000" transform="translate(0,0)"/>
<path d="" fill="#000000" transform="translate(0,0)"/>
<path d="" fill="#000000" transform="translate(0,0)"/>
<path d="" fill="#000000" transform="translate(0,0)"/>
<path d="" fill="#000000" transform="translate(0,0)"/>
<path d="" fill="#000000" transform="translate(0,0)"/>
<path d="" fill="#000000" transform="translate(0,0)"/>
<path d="" fill="#000000" transform="translate(0,0)"/>
<path d="" fill="#000000" transform="translate(0,0)"/>
<path d="" fill="#000000" transform="translate(0,0)"/>
<path d="" fill="#000000" transform="translate(0,0)"/>
<path d="" fill="#000000" transform="translate(0,0)"/>
<path d="" fill="#000000" transform="translate(0,0)"/>
<path d="" fill="#000000" transform="translate(0,0)"/>
<path d="" fill="#000000" transform="translate(0,0)"/>
<path d="" fill="#000000" transform="translate(0,0)"/>
<path d="" fill="#000000" transform="translate(0,0)"/>
<path d="" fill="#000000" transform="translate(0,0)"/>
<path d="" fill="#000000" transform="translate(0,0)"/>
<path d="" fill="#000000" transform="translate(0,0)"/>
<path d="" fill="#000000" transform="translate(0,0)"/>
<path d="" fill="#000000" transform="translate(0,0)"/>
<path d="" fill="#000000" transform="translate(0,0)"/>
</svg>
