<svg width="400" height="400" viewBox="0 0 400 400" fill="none" xmlns="http://www.w3.org/2000/svg">
<g clip-path="url(#clip0_3241_1200)">
<path d="M132.375 223.609C106.844 214.391 77.3282 233.516 63.0938 253.781C37.3438 293.719 60.875 346.828 95.8282 373.406C111.734 385.859 139.5 396.344 154.438 375.531C161.266 366.078 164.141 354.422 165.984 344.719C167.469 335.891 168.797 327.25 169 318.547C169.281 288.75 162.641 237.703 132.375 223.641V223.609Z" fill="#FF4500"/>
<path d="M326 279.922C318.063 275.781 310.25 271.859 302.047 268.953C273.797 259.469 223.188 250.016 200.469 274.469C183.813 295.906 192.875 329.875 207.75 349.687C237.766 386.516 295.563 380.562 331.625 355.516C348.375 344.234 366.938 321.062 351.75 300.437C344.859 291.016 334.672 284.687 326.016 279.922H326Z" fill="#FF4500"/>
<path d="M387.469 125.734C381.922 106.313 365.625 81.5 341.297 89.5781C330.203 93.2188 321.047 100.953 313.828 107.719C307.438 114 301.297 120.203 296 127.125C278.25 151.063 253.625 196.266 269.844 225.438C285.078 247.906 320.188 249.781 343.625 241.75C387.938 224.578 400.125 167.781 387.453 125.734H387.469Z" fill="#FF4500"/>
<path d="M244.672 144.266C270.75 136.719 283.375 103.906 283 79.1406C280.359 31.7031 230.109 2.54686 186.203 1.60936C166.016 0.890615 137.391 8.71874 137.547 34.3437C137.578 46.0156 142.109 57.125 146.313 66.0625C150.313 74.0781 154.313 81.8437 159.25 89.0156C176.531 113.281 211.906 150.687 244.672 144.266Z" fill="#FF4500"/>
<path d="M80.75 207.312C109.172 198.375 155.672 176.281 159.703 143.141C160.578 116 133.281 93.8594 109.594 86.5625C63.6563 74.4062 20.4063 113.203 5.95317 154.656C-0.968703 173.625 -2.37495 203.281 22.0469 211.047C33.1563 214.625 45.125 213.75 54.9219 212.516C63.7813 211.187 72.4063 209.781 80.75 207.297V207.312Z" fill="#FF4500"/>
</g>
<defs>
<clipPath id="clip0_3241_1200">
<rect width="400" height="400" fill="white"/>
</clipPath>
</defs>
</svg>
